M48
; DRILL file {KiCad 9.0.0} date 2025-08-11T15:21:15+0200
; FORMAT={-:-/ absolute / inch / decimal}
; #@! TF.CreationDate,2025-08-11T15:21:15+02:00
; #@! TF.GenerationSoftware,Kicad,Pcbnew,9.0.0
; #@! TF.FileFunction,Plated,1,2,PTH
FMAT,2
INCH
; #@! TA.AperFunction,Plated,PTH,ViaDrill
T1C0.0118
; #@! TA.AperFunction,Plated,PTH,ComponentDrill
T2C0.0394
%
G90
G05
T1
X3.5Y-3.7146
X3.5Y-3.813
X3.5Y-3.9193
X3.5Y-4.0256
X3.6417Y-3.7067
X3.6417Y-3.813
X3.6417Y-3.9193
X3.6417Y-4.0295
X3.8386Y-4.0295
X3.878Y-3.7028
X3.878Y-3.8169
X3.9279Y-3.9388
X4.0827Y-4.0571
X4.0866Y-3.939
X4.1102Y-3.9803
X4.1102Y-4.0118
X4.126Y-3.7008
X4.126Y-3.8189
X4.126Y-3.937
X4.126Y-4.0551
T2
X3.4528Y-3.5768
X3.4528Y-3.6768
X3.4528Y-3.7768
X3.4528Y-3.8768
X3.4528Y-3.9768
X3.4528Y-4.0768
X3.4528Y-4.1768
X3.4528Y-4.2768
X3.4528Y-4.3768
X3.5528Y-3.5768
X3.5528Y-3.6768
X3.5528Y-3.7768
X3.5528Y-3.8768
X3.5528Y-3.9768
X3.5528Y-4.0768
X3.5528Y-4.1768
X3.5528Y-4.2768
X3.5528Y-4.3768
M30
