%TF.GenerationSoftware,KiCad,Pcbnew,9.0.0*%
%TF.CreationDate,2025-08-11T15:21:08+02:00*%
%TF.ProjectId,ov5640_adapter,6f763536-3430-45f6-9164-61707465722e,rev?*%
%TF.SameCoordinates,Original*%
%TF.FileFunction,Copper,L1,Top*%
%TF.FilePolarity,Positive*%
%FSLAX46Y46*%
G04 Gerber Fmt 4.6, Leading zero omitted, Abs format (unit mm)*
G04 Created by KiCad (PCBNEW 9.0.0) date 2025-08-11 15:21:08*
%MOMM*%
%LPD*%
G01*
G04 APERTURE LIST*
%TA.AperFunction,SMDPad,CuDef*%
%ADD10R,2.000000X0.610000*%
%TD*%
%TA.AperFunction,SMDPad,CuDef*%
%ADD11R,3.600000X2.680000*%
%TD*%
%TA.AperFunction,ComponentPad*%
%ADD12R,1.700000X1.700000*%
%TD*%
%TA.AperFunction,ComponentPad*%
%ADD13O,1.700000X1.700000*%
%TD*%
%TA.AperFunction,ViaPad*%
%ADD14C,0.600000*%
%TD*%
%TA.AperFunction,Conductor*%
%ADD15C,0.200000*%
%TD*%
%TA.AperFunction,Conductor*%
%ADD16C,0.300000*%
%TD*%
G04 APERTURE END LIST*
D10*
%TO.P,J2,1,1*%
%TO.N,GND*%
X106300000Y-94000000D03*
%TO.P,J2,2,2*%
%TO.N,/CSI_D0_N*%
X106300000Y-95000000D03*
%TO.P,J2,3,3*%
%TO.N,/CSI_D0_P*%
X106300000Y-96000000D03*
%TO.P,J2,4,4*%
%TO.N,GND*%
X106300000Y-97000000D03*
%TO.P,J2,5,5*%
%TO.N,/CSI_D1_N*%
X106300000Y-98000000D03*
%TO.P,J2,6,6*%
%TO.N,/CSI_D1_P*%
X106300000Y-99000000D03*
%TO.P,J2,7,7*%
%TO.N,GND*%
X106300000Y-100000000D03*
%TO.P,J2,8,8*%
%TO.N,/CSI_CK_N*%
X106300000Y-101000000D03*
%TO.P,J2,9,9*%
%TO.N,/CSI_CK_P*%
X106300000Y-102000000D03*
%TO.P,J2,10,10*%
%TO.N,GND*%
X106300000Y-103000000D03*
%TO.P,J2,11,11*%
%TO.N,/CAM_PD#*%
X106300000Y-104000000D03*
%TO.P,J2,12,12*%
%TO.N,unconnected-(J2-Pad12)*%
X106300000Y-105000000D03*
%TO.P,J2,13,13*%
%TO.N,/SCL*%
X106300000Y-106000000D03*
%TO.P,J2,14,14*%
%TO.N,/SDA*%
X106300000Y-107000000D03*
%TO.P,J2,15,15*%
%TO.N,+3V3*%
X106300000Y-108000000D03*
D11*
%TO.P,J2,MP1,MP1*%
%TO.N,unconnected-(J2-PadMP1)*%
X109100000Y-110990000D03*
%TO.P,J2,MP2,MP2*%
%TO.N,unconnected-(J2-PadMP2)*%
X109100000Y-91010000D03*
%TD*%
D12*
%TO.P,J1,1,Pin_1*%
%TO.N,unconnected-(J1-Pin_1-Pad1)*%
X90240000Y-90850000D03*
D13*
%TO.P,J1,2,Pin_2*%
%TO.N,/CAM_PD#*%
X87700000Y-90850000D03*
%TO.P,J1,3,Pin_3*%
%TO.N,unconnected-(J1-Pin_3-Pad3)*%
X90240000Y-93390000D03*
%TO.P,J1,4,Pin_4*%
%TO.N,unconnected-(J1-Pin_4-Pad4)*%
X87700000Y-93390000D03*
%TO.P,J1,5,Pin_5*%
%TO.N,/CSI_D0_P*%
X90240000Y-95930000D03*
%TO.P,J1,6,Pin_6*%
%TO.N,/CSI_D0_N*%
X87700000Y-95930000D03*
%TO.P,J1,7,Pin_7*%
%TO.N,/CSI_CK_P*%
X90240000Y-98470000D03*
%TO.P,J1,8,Pin_8*%
%TO.N,/CSI_CK_N*%
X87700000Y-98470000D03*
%TO.P,J1,9,Pin_9*%
%TO.N,/CSI_D1_P*%
X90240000Y-101010000D03*
%TO.P,J1,10,Pin_10*%
%TO.N,/CSI_D1_N*%
X87700000Y-101010000D03*
%TO.P,J1,11,Pin_11*%
%TO.N,unconnected-(J1-Pin_11-Pad11)*%
X90240000Y-103550000D03*
%TO.P,J1,12,Pin_12*%
%TO.N,unconnected-(J1-Pin_12-Pad12)*%
X87700000Y-103550000D03*
%TO.P,J1,13,Pin_13*%
%TO.N,unconnected-(J1-Pin_13-Pad13)*%
X90240000Y-106090000D03*
%TO.P,J1,14,Pin_14*%
%TO.N,unconnected-(J1-Pin_14-Pad14)*%
X87700000Y-106090000D03*
%TO.P,J1,15,Pin_15*%
%TO.N,/SCL*%
X90240000Y-108630000D03*
%TO.P,J1,16,Pin_16*%
%TO.N,/SDA*%
X87700000Y-108630000D03*
%TO.P,J1,17,Pin_17*%
%TO.N,+3V3*%
X90240000Y-111170000D03*
%TO.P,J1,18,Pin_18*%
%TO.N,GND*%
X87700000Y-111170000D03*
%TD*%
D14*
%TO.N,/CSI_CK_P*%
X104400000Y-101900000D03*
%TO.N,GND*%
X104800000Y-100000000D03*
X98500000Y-96950000D03*
X92500000Y-99550000D03*
X92500000Y-102350000D03*
X88900000Y-96850000D03*
X104800000Y-103000000D03*
X88900000Y-99550000D03*
X97500000Y-102350000D03*
X103800000Y-100050000D03*
X92500000Y-94150000D03*
X88900000Y-102250000D03*
X104800000Y-97000000D03*
X99768600Y-100045600D03*
X88900000Y-94350000D03*
X98500000Y-94050000D03*
X103700000Y-103050000D03*
X104800000Y-94000000D03*
X92500000Y-96850000D03*
%TO.N,/CSI_CK_N*%
X104400000Y-101100000D03*
%TD*%
D15*
%TO.N,/CAM_PD#*%
X93100000Y-104800000D02*
X93900000Y-104000000D01*
X86550000Y-90850000D02*
X86300000Y-91100000D01*
X86300000Y-103674523D02*
X87425477Y-104800000D01*
X93900000Y-104000000D02*
X106300000Y-104000000D01*
X87425477Y-104800000D02*
X93100000Y-104800000D01*
X86300000Y-91100000D02*
X86300000Y-103674523D01*
X87700000Y-90850000D02*
X86550000Y-90850000D01*
D16*
%TO.N,/CSI_D1_P*%
X104549999Y-98750000D02*
X98403554Y-98750000D01*
X96826776Y-100326776D02*
X96143552Y-101010000D01*
X96143552Y-101010000D02*
X90240000Y-101010000D01*
X104799999Y-99000000D02*
X104549999Y-98750000D01*
X98403554Y-98750000D02*
X96826778Y-100326776D01*
X106300000Y-99000000D02*
X104799999Y-99000000D01*
X96826778Y-100326776D02*
X96826776Y-100326776D01*
%TO.N,/CSI_D1_N*%
X104549999Y-98250000D02*
X98196446Y-98250000D01*
X98196446Y-98250000D02*
X95936446Y-100510000D01*
X104799999Y-98000000D02*
X104549999Y-98250000D01*
X95936446Y-100510000D02*
X91438471Y-100510000D01*
X90737471Y-99809000D02*
X89742529Y-99809000D01*
X91438471Y-100510000D02*
X90737471Y-99809000D01*
X106300000Y-98000000D02*
X104799999Y-98000000D01*
X89041529Y-100510000D02*
X88200000Y-100510000D01*
X88200000Y-100510000D02*
X87700000Y-101010000D01*
X89742529Y-99809000D02*
X89041529Y-100510000D01*
D15*
%TO.N,/SDA*%
X95067100Y-107000000D02*
X92286100Y-109781000D01*
X88851000Y-109781000D02*
X87700000Y-108630000D01*
X92286100Y-109781000D02*
X88851000Y-109781000D01*
X106300000Y-107000000D02*
X95067100Y-107000000D01*
D16*
%TO.N,/CSI_D0_P*%
X91082600Y-95930000D02*
X91262600Y-95750000D01*
X104549999Y-95750000D02*
X104799999Y-96000000D01*
X90240000Y-95930000D02*
X91082600Y-95930000D01*
X91262600Y-95750000D02*
X104549999Y-95750000D01*
X104799999Y-96000000D02*
X106300000Y-96000000D01*
%TO.N,/CSI_CK_P*%
X106300000Y-102000000D02*
X105605000Y-102000000D01*
X105355000Y-101750000D02*
X104550000Y-101750000D01*
X105605000Y-102000000D02*
X105355000Y-101750000D01*
X104550000Y-101750000D02*
X104400000Y-101900000D01*
D15*
%TO.N,GND*%
X106300000Y-94000000D02*
X104800000Y-94000000D01*
X106300000Y-100000000D02*
X104800000Y-100000000D01*
X106300000Y-97000000D02*
X104800000Y-97000000D01*
X106300000Y-103000000D02*
X104800000Y-103000000D01*
D16*
%TO.N,/CSI_CK_N*%
X106300000Y-101000000D02*
X105605000Y-101000000D01*
X104550000Y-101250000D02*
X104400000Y-101100000D01*
X105355000Y-101250000D02*
X104550000Y-101250000D01*
X105605000Y-101000000D02*
X105355000Y-101250000D01*
%TO.N,/CSI_D0_N*%
X89881600Y-94591000D02*
X89024400Y-95448200D01*
X91618827Y-95250000D02*
X90959827Y-94591000D01*
X90959827Y-94591000D02*
X89881600Y-94591000D01*
X106300000Y-95000000D02*
X104799999Y-95000000D01*
X89024400Y-95448200D02*
X88181800Y-95448200D01*
X88181800Y-95448200D02*
X87700000Y-95930000D01*
X104549999Y-95250000D02*
X91618827Y-95250000D01*
X104799999Y-95000000D02*
X104549999Y-95250000D01*
%TO.N,+3V3*%
X90270000Y-111200000D02*
X90240000Y-111170000D01*
X95100000Y-108000000D02*
X91900000Y-111200000D01*
X106300000Y-108000000D02*
X95100000Y-108000000D01*
X91900000Y-111200000D02*
X90270000Y-111200000D01*
D15*
%TO.N,/SCL*%
X92170000Y-108630000D02*
X90240000Y-108630000D01*
X94800000Y-106000000D02*
X92170000Y-108630000D01*
X106300000Y-106000000D02*
X94800000Y-106000000D01*
%TD*%
%TA.AperFunction,Conductor*%
%TO.N,GND*%
G36*
X111303736Y-80050726D02*
G01*
X111593796Y-80068271D01*
X111608659Y-80070076D01*
X111890798Y-80121780D01*
X111905335Y-80125363D01*
X112179172Y-80210695D01*
X112193163Y-80216000D01*
X112454743Y-80333727D01*
X112467989Y-80340680D01*
X112713465Y-80489075D01*
X112725776Y-80497573D01*
X112951573Y-80674473D01*
X112962781Y-80684403D01*
X113165596Y-80887218D01*
X113175526Y-80898426D01*
X113295481Y-81051538D01*
X113352422Y-81124217D01*
X113360928Y-81136540D01*
X113509316Y-81382004D01*
X113516275Y-81395263D01*
X113633997Y-81656831D01*
X113639306Y-81670832D01*
X113724635Y-81944663D01*
X113728219Y-81959201D01*
X113779923Y-82241340D01*
X113781728Y-82256205D01*
X113799274Y-82546263D01*
X113799500Y-82553750D01*
X113799500Y-119546249D01*
X113799274Y-119553736D01*
X113781728Y-119843794D01*
X113779923Y-119858659D01*
X113728219Y-120140798D01*
X113724635Y-120155336D01*
X113639306Y-120429167D01*
X113633997Y-120443168D01*
X113516275Y-120704736D01*
X113509316Y-120717995D01*
X113360928Y-120963459D01*
X113352422Y-120975782D01*
X113175526Y-121201573D01*
X113165596Y-121212781D01*
X112962781Y-121415596D01*
X112951573Y-121425526D01*
X112725782Y-121602422D01*
X112713459Y-121610928D01*
X112467995Y-121759316D01*
X112454736Y-121766275D01*
X112193168Y-121883997D01*
X112179167Y-121889306D01*
X111905336Y-121974635D01*
X111890798Y-121978219D01*
X111608659Y-122029923D01*
X111593794Y-122031728D01*
X111303736Y-122049274D01*
X111296249Y-122049500D01*
X87303751Y-122049500D01*
X87296264Y-122049274D01*
X87006205Y-122031728D01*
X86991340Y-122029923D01*
X86709201Y-121978219D01*
X86694663Y-121974635D01*
X86420832Y-121889306D01*
X86406831Y-121883997D01*
X86145263Y-121766275D01*
X86132004Y-121759316D01*
X85886540Y-121610928D01*
X85874217Y-121602422D01*
X85648426Y-121425526D01*
X85637218Y-121415596D01*
X85434403Y-121212781D01*
X85424473Y-121201573D01*
X85247573Y-120975776D01*
X85239075Y-120963465D01*
X85090680Y-120717989D01*
X85083727Y-120704743D01*
X84966000Y-120443163D01*
X84960693Y-120429167D01*
X84940183Y-120363349D01*
X84875363Y-120155335D01*
X84871780Y-120140798D01*
X84865938Y-120108918D01*
X84820075Y-119858657D01*
X84818271Y-119843794D01*
X84813481Y-119764612D01*
X84800726Y-119553736D01*
X84800500Y-119546249D01*
X84800500Y-118675258D01*
X85949500Y-118675258D01*
X85949500Y-118904741D01*
X85974446Y-119094215D01*
X85979452Y-119132238D01*
X85979453Y-119132240D01*
X86038842Y-119353887D01*
X86126650Y-119565876D01*
X86126657Y-119565890D01*
X86241392Y-119764617D01*
X86381081Y-119946661D01*
X86381089Y-119946670D01*
X86543330Y-120108911D01*
X86543338Y-120108918D01*
X86725382Y-120248607D01*
X86725385Y-120248608D01*
X86725388Y-120248611D01*
X86924112Y-120363344D01*
X86924117Y-120363346D01*
X86924123Y-120363349D01*
X87015480Y-120401190D01*
X87136113Y-120451158D01*
X87357762Y-120510548D01*
X87585266Y-120540500D01*
X87585273Y-120540500D01*
X87814727Y-120540500D01*
X87814734Y-120540500D01*
X88042238Y-120510548D01*
X88263887Y-120451158D01*
X88475888Y-120363344D01*
X88674612Y-120248611D01*
X88856661Y-120108919D01*
X88856665Y-120108914D01*
X88856670Y-120108911D01*
X89018911Y-119946670D01*
X89018914Y-119946665D01*
X89018919Y-119946661D01*
X89158611Y-119764612D01*
X89273344Y-119565888D01*
X89361158Y-119353887D01*
X89420548Y-119132238D01*
X89450500Y-118904734D01*
X89450500Y-118675266D01*
X89450499Y-118675258D01*
X108809500Y-118675258D01*
X108809500Y-118904741D01*
X108834446Y-119094215D01*
X108839452Y-119132238D01*
X108839453Y-119132240D01*
X108898842Y-119353887D01*
X108986650Y-119565876D01*
X108986657Y-119565890D01*
X109101392Y-119764617D01*
X109241081Y-119946661D01*
X109241089Y-119946670D01*
X109403330Y-120108911D01*
X109403338Y-120108918D01*
X109585382Y-120248607D01*
X109585385Y-120248608D01*
X109585388Y-120248611D01*
X109784112Y-120363344D01*
X109784117Y-120363346D01*
X109784123Y-120363349D01*
X109875480Y-120401190D01*
X109996113Y-120451158D01*
X110217762Y-120510548D01*
X110445266Y-120540500D01*
X110445273Y-120540500D01*
X110674727Y-120540500D01*
X110674734Y-120540500D01*
X110902238Y-120510548D01*
X111123887Y-120451158D01*
X111335888Y-120363344D01*
X111534612Y-120248611D01*
X111716661Y-120108919D01*
X111716665Y-120108914D01*
X111716670Y-120108911D01*
X111878911Y-119946670D01*
X111878914Y-119946665D01*
X111878919Y-119946661D01*
X112018611Y-119764612D01*
X112133344Y-119565888D01*
X112221158Y-119353887D01*
X112280548Y-119132238D01*
X112310500Y-118904734D01*
X112310500Y-118675266D01*
X112280548Y-118447762D01*
X112221158Y-118226113D01*
X112133344Y-118014112D01*
X112018611Y-117815388D01*
X112018608Y-117815385D01*
X112018607Y-117815382D01*
X111878918Y-117633338D01*
X111878911Y-117633330D01*
X111716670Y-117471089D01*
X111716661Y-117471081D01*
X111534617Y-117331392D01*
X111335890Y-117216657D01*
X111335876Y-117216650D01*
X111123887Y-117128842D01*
X110902238Y-117069452D01*
X110864215Y-117064446D01*
X110674741Y-117039500D01*
X110674734Y-117039500D01*
X110445266Y-117039500D01*
X110445258Y-117039500D01*
X110228715Y-117068009D01*
X110217762Y-117069452D01*
X110124076Y-117094554D01*
X109996112Y-117128842D01*
X109784123Y-117216650D01*
X109784109Y-117216657D01*
X109585382Y-117331392D01*
X109403338Y-117471081D01*
X109241081Y-117633338D01*
X109101392Y-117815382D01*
X108986657Y-118014109D01*
X108986650Y-118014123D01*
X108898842Y-118226112D01*
X108839453Y-118447759D01*
X108839451Y-118447770D01*
X108809500Y-118675258D01*
X89450499Y-118675258D01*
X89420548Y-118447762D01*
X89361158Y-118226113D01*
X89273344Y-118014112D01*
X89158611Y-117815388D01*
X89158608Y-117815385D01*
X89158607Y-117815382D01*
X89018918Y-117633338D01*
X89018911Y-117633330D01*
X88856670Y-117471089D01*
X88856661Y-117471081D01*
X88674617Y-117331392D01*
X88475890Y-117216657D01*
X88475876Y-117216650D01*
X88263887Y-117128842D01*
X88042238Y-117069452D01*
X88004215Y-117064446D01*
X87814741Y-117039500D01*
X87814734Y-117039500D01*
X87585266Y-117039500D01*
X87585258Y-117039500D01*
X87368715Y-117068009D01*
X87357762Y-117069452D01*
X87264076Y-117094554D01*
X87136112Y-117128842D01*
X86924123Y-117216650D01*
X86924109Y-117216657D01*
X86725382Y-117331392D01*
X86543338Y-117471081D01*
X86381081Y-117633338D01*
X86241392Y-117815382D01*
X86126657Y-118014109D01*
X86126650Y-118014123D01*
X86038842Y-118226112D01*
X85979453Y-118447759D01*
X85979451Y-118447770D01*
X85949500Y-118675258D01*
X84800500Y-118675258D01*
X84800500Y-91060438D01*
X85999500Y-91060438D01*
X85999500Y-103714085D01*
X86007058Y-103742290D01*
X86019979Y-103790513D01*
X86038343Y-103822320D01*
X86058027Y-103856413D01*
X86058027Y-103856415D01*
X86059482Y-103858934D01*
X86059540Y-103859034D01*
X86059544Y-103859038D01*
X87189774Y-104989268D01*
X87223259Y-105050591D01*
X87218275Y-105120283D01*
X87176403Y-105176216D01*
X87170984Y-105180051D01*
X87030344Y-105274022D01*
X86884024Y-105420342D01*
X86769058Y-105592403D01*
X86689870Y-105783579D01*
X86689868Y-105783587D01*
X86649500Y-105986530D01*
X86649500Y-106193469D01*
X86689868Y-106396412D01*
X86689870Y-106396420D01*
X86732774Y-106500000D01*
X86769059Y-106587598D01*
X86788551Y-106616770D01*
X86884024Y-106759657D01*
X87030342Y-106905975D01*
X87030345Y-106905977D01*
X87202402Y-107020941D01*
X87393580Y-107100130D01*
X87596530Y-107140499D01*
X87596534Y-107140500D01*
X87596535Y-107140500D01*
X87803466Y-107140500D01*
X87803467Y-107140499D01*
X88006420Y-107100130D01*
X88197598Y-107020941D01*
X88369655Y-106905977D01*
X88515977Y-106759655D01*
X88630941Y-106587598D01*
X88710130Y-106396420D01*
X88750500Y-106193465D01*
X88750500Y-105986535D01*
X88710130Y-105783580D01*
X88630941Y-105592402D01*
X88515977Y-105420345D01*
X88515975Y-105420342D01*
X88407814Y-105312181D01*
X88374329Y-105250858D01*
X88379313Y-105181166D01*
X88421185Y-105125233D01*
X88486649Y-105100816D01*
X88495495Y-105100500D01*
X89444505Y-105100500D01*
X89511544Y-105120185D01*
X89557299Y-105172989D01*
X89567243Y-105242147D01*
X89538218Y-105305703D01*
X89532186Y-105312181D01*
X89424025Y-105420341D01*
X89424024Y-105420342D01*
X89309058Y-105592403D01*
X89229870Y-105783579D01*
X89229868Y-105783587D01*
X89189500Y-105986530D01*
X89189500Y-106193469D01*
X89229868Y-106396412D01*
X89229870Y-106396420D01*
X89272774Y-106500000D01*
X89309059Y-106587598D01*
X89328551Y-106616770D01*
X89424024Y-106759657D01*
X89570342Y-106905975D01*
X89570345Y-106905977D01*
X89742402Y-107020941D01*
X89933580Y-107100130D01*
X90136530Y-107140499D01*
X90136534Y-107140500D01*
X90136535Y-107140500D01*
X90343466Y-107140500D01*
X90343467Y-107140499D01*
X90546420Y-107100130D01*
X90737598Y-107020941D01*
X90909655Y-106905977D01*
X91055977Y-106759655D01*
X91170941Y-106587598D01*
X91250130Y-106396420D01*
X91290500Y-106193465D01*
X91290500Y-105986535D01*
X91250130Y-105783580D01*
X91170941Y-105592402D01*
X91055977Y-105420345D01*
X91055975Y-105420342D01*
X90947814Y-105312181D01*
X90914329Y-105250858D01*
X90919313Y-105181166D01*
X90961185Y-105125233D01*
X91026649Y-105100816D01*
X91035495Y-105100500D01*
X93139560Y-105100500D01*
X93139562Y-105100500D01*
X93215989Y-105080021D01*
X93284511Y-105040460D01*
X93340460Y-104984511D01*
X93988152Y-104336819D01*
X94049475Y-104303334D01*
X94075833Y-104300500D01*
X104994010Y-104300500D01*
X105061049Y-104320185D01*
X105099896Y-104359970D01*
X105109708Y-104376071D01*
X105111133Y-104383231D01*
X105144553Y-104433248D01*
X105145908Y-104435470D01*
X105154306Y-104466821D01*
X105164002Y-104497786D01*
X105163293Y-104500369D01*
X105163987Y-104502960D01*
X105154103Y-104533869D01*
X105145518Y-104565167D01*
X105143124Y-104568891D01*
X105111132Y-104616769D01*
X105111131Y-104616770D01*
X105099500Y-104675247D01*
X105099500Y-105324752D01*
X105111131Y-105383229D01*
X105111132Y-105383230D01*
X105143124Y-105431109D01*
X105148342Y-105447773D01*
X105158131Y-105462235D01*
X105158565Y-105480423D01*
X105164002Y-105497786D01*
X105159386Y-105514811D01*
X105159799Y-105532085D01*
X105147112Y-105560088D01*
X105145908Y-105564530D01*
X105144553Y-105566751D01*
X105111133Y-105616769D01*
X105109708Y-105623928D01*
X105099896Y-105640030D01*
X105080866Y-105657332D01*
X105064727Y-105677358D01*
X105055441Y-105680448D01*
X105048199Y-105687033D01*
X105022834Y-105691299D01*
X104998433Y-105699421D01*
X104994010Y-105699500D01*
X94760438Y-105699500D01*
X94684010Y-105719978D01*
X94615489Y-105759540D01*
X94615486Y-105759542D01*
X92081848Y-108293181D01*
X92020525Y-108326666D01*
X91994167Y-108329500D01*
X91335436Y-108329500D01*
X91268397Y-108309815D01*
X91222642Y-108257011D01*
X91220875Y-108252953D01*
X91170941Y-108132403D01*
X91170941Y-108132402D01*
X91055977Y-107960345D01*
X91055975Y-107960342D01*
X90909657Y-107814024D01*
X90823626Y-107756541D01*
X90737598Y-107699059D01*
X90675618Y-107673386D01*
X90546420Y-107619870D01*
X90546412Y-107619868D01*
X90343469Y-107579500D01*
X90343465Y-107579500D01*
X90136535Y-107579500D01*
X90136530Y-107579500D01*
X89933587Y-107619868D01*
X89933579Y-107619870D01*
X89742403Y-107699058D01*
X89570342Y-107814024D01*
X89424024Y-107960342D01*
X89309058Y-108132403D01*
X89229870Y-108323579D01*
X89229868Y-108323587D01*
X89189500Y-108526530D01*
X89189500Y-108733469D01*
X89229868Y-108936412D01*
X89229870Y-108936420D01*
X89309059Y-109127599D01*
X89309059Y-109127600D01*
X89415974Y-109287610D01*
X89436852Y-109354287D01*
X89418367Y-109421667D01*
X89366388Y-109468357D01*
X89312872Y-109480500D01*
X89026833Y-109480500D01*
X88959794Y-109460815D01*
X88939152Y-109444181D01*
X88687075Y-109192104D01*
X88653590Y-109130781D01*
X88658574Y-109061089D01*
X88660163Y-109057049D01*
X88710130Y-108936420D01*
X88750500Y-108733465D01*
X88750500Y-108526535D01*
X88710130Y-108323580D01*
X88630941Y-108132402D01*
X88515977Y-107960345D01*
X88515975Y-107960342D01*
X88369657Y-107814024D01*
X88283626Y-107756541D01*
X88197598Y-107699059D01*
X88135618Y-107673386D01*
X88006420Y-107619870D01*
X88006412Y-107619868D01*
X87803469Y-107579500D01*
X87803465Y-107579500D01*
X87596535Y-107579500D01*
X87596530Y-107579500D01*
X87393587Y-107619868D01*
X87393579Y-107619870D01*
X87202403Y-107699058D01*
X87030342Y-107814024D01*
X86884024Y-107960342D01*
X86769058Y-108132403D01*
X86689870Y-108323579D01*
X86689868Y-108323587D01*
X86649500Y-108526530D01*
X86649500Y-108733469D01*
X86688692Y-108930500D01*
X86689870Y-108936420D01*
X86769059Y-109127598D01*
X86771186Y-109130781D01*
X86884024Y-109299657D01*
X87030342Y-109445975D01*
X87202405Y-109560943D01*
X87305043Y-109603456D01*
X87367108Y-109629164D01*
X87421511Y-109673005D01*
X87443576Y-109739299D01*
X87426297Y-109806998D01*
X87375160Y-109854609D01*
X87357974Y-109861656D01*
X87181781Y-109918905D01*
X86992442Y-110015379D01*
X86820540Y-110140272D01*
X86820535Y-110140276D01*
X86670276Y-110290535D01*
X86670272Y-110290540D01*
X86545379Y-110462442D01*
X86448904Y-110651782D01*
X86383242Y-110853870D01*
X86383242Y-110853873D01*
X86372769Y-110920000D01*
X87266988Y-110920000D01*
X87234075Y-110977007D01*
X87200000Y-111104174D01*
X87200000Y-111235826D01*
X87234075Y-111362993D01*
X87266988Y-111420000D01*
X86372769Y-111420000D01*
X86383242Y-111486126D01*
X86383242Y-111486129D01*
X86448904Y-111688217D01*
X86545379Y-111877557D01*
X86670272Y-112049459D01*
X86670276Y-112049464D01*
X86820535Y-112199723D01*
X86820540Y-112199727D01*
X86992442Y-112324620D01*
X87181782Y-112421095D01*
X87383871Y-112486757D01*
X87450000Y-112497231D01*
X87450000Y-111603012D01*
X87507007Y-111635925D01*
X87634174Y-111670000D01*
X87765826Y-111670000D01*
X87892993Y-111635925D01*
X87950000Y-111603012D01*
X87950000Y-112497230D01*
X88016126Y-112486757D01*
X88016129Y-112486757D01*
X88218217Y-112421095D01*
X88407557Y-112324620D01*
X88579459Y-112199727D01*
X88579464Y-112199723D01*
X88729723Y-112049464D01*
X88729727Y-112049459D01*
X88854620Y-111877557D01*
X88951095Y-111688217D01*
X89008343Y-111512026D01*
X89047780Y-111454351D01*
X89112139Y-111427152D01*
X89180985Y-111439066D01*
X89232461Y-111486310D01*
X89240835Y-111502891D01*
X89309058Y-111667596D01*
X89424024Y-111839657D01*
X89570342Y-111985975D01*
X89570345Y-111985977D01*
X89742402Y-112100941D01*
X89933580Y-112180130D01*
X90136530Y-112220499D01*
X90136534Y-112220500D01*
X90136535Y-112220500D01*
X90343466Y-112220500D01*
X90343467Y-112220499D01*
X90546420Y-112180130D01*
X90737598Y-112100941D01*
X90909655Y-111985977D01*
X91055977Y-111839655D01*
X91170941Y-111667598D01*
X91187738Y-111627047D01*
X91231579Y-111572644D01*
X91297873Y-111550579D01*
X91302299Y-111550500D01*
X91946142Y-111550500D01*
X91946144Y-111550500D01*
X92035288Y-111526614D01*
X92037226Y-111525495D01*
X92115212Y-111480470D01*
X93965434Y-109630247D01*
X107099500Y-109630247D01*
X107099500Y-112349752D01*
X107111131Y-112408229D01*
X107111132Y-112408230D01*
X107155447Y-112474552D01*
X107221769Y-112518867D01*
X107221770Y-112518868D01*
X107280247Y-112530499D01*
X107280250Y-112530500D01*
X107280252Y-112530500D01*
X110919750Y-112530500D01*
X110919751Y-112530499D01*
X110934568Y-112527552D01*
X110978229Y-112518868D01*
X110978229Y-112518867D01*
X110978231Y-112518867D01*
X111044552Y-112474552D01*
X111088867Y-112408231D01*
X111088867Y-112408229D01*
X111088868Y-112408229D01*
X111100499Y-112349752D01*
X111100500Y-112349750D01*
X111100500Y-109630249D01*
X111100499Y-109630247D01*
X111088868Y-109571770D01*
X111088867Y-109571769D01*
X111044552Y-109505447D01*
X110978230Y-109461132D01*
X110978229Y-109461131D01*
X110919752Y-109449500D01*
X110919748Y-109449500D01*
X107280252Y-109449500D01*
X107280247Y-109449500D01*
X107221770Y-109461131D01*
X107221769Y-109461132D01*
X107155447Y-109505447D01*
X107111132Y-109571769D01*
X107111131Y-109571770D01*
X107099500Y-109630247D01*
X93965434Y-109630247D01*
X95208862Y-108386818D01*
X95270185Y-108353334D01*
X95296543Y-108350500D01*
X105022983Y-108350500D01*
X105090022Y-108370185D01*
X105126084Y-108405608D01*
X105155446Y-108449551D01*
X105221769Y-108493867D01*
X105221770Y-108493868D01*
X105280247Y-108505499D01*
X105280250Y-108505500D01*
X105280252Y-108505500D01*
X107319750Y-108505500D01*
X107319751Y-108505499D01*
X107334568Y-108502552D01*
X107378229Y-108493868D01*
X107378229Y-108493867D01*
X107378231Y-108493867D01*
X107444552Y-108449552D01*
X107488867Y-108383231D01*
X107488867Y-108383229D01*
X107488868Y-108383229D01*
X107500499Y-108324752D01*
X107500500Y-108324750D01*
X107500500Y-107675249D01*
X107500499Y-107675247D01*
X107488868Y-107616770D01*
X107488867Y-107616768D01*
X107456876Y-107568892D01*
X107435997Y-107502215D01*
X107454481Y-107434835D01*
X107456876Y-107431108D01*
X107488867Y-107383231D01*
X107488868Y-107383229D01*
X107500499Y-107324752D01*
X107500500Y-107324750D01*
X107500500Y-106675249D01*
X107500499Y-106675247D01*
X107488868Y-106616770D01*
X107488867Y-106616768D01*
X107456876Y-106568892D01*
X107435997Y-106502215D01*
X107454481Y-106434835D01*
X107456876Y-106431108D01*
X107488867Y-106383231D01*
X107488868Y-106383229D01*
X107500499Y-106324752D01*
X107500500Y-106324750D01*
X107500500Y-105675249D01*
X107500499Y-105675247D01*
X107488868Y-105616770D01*
X107488867Y-105616768D01*
X107456876Y-105568892D01*
X107435997Y-105502215D01*
X107454481Y-105434835D01*
X107456876Y-105431108D01*
X107488867Y-105383231D01*
X107488868Y-105383229D01*
X107500499Y-105324752D01*
X107500500Y-105324750D01*
X107500500Y-104675249D01*
X107500499Y-104675247D01*
X107488868Y-104616770D01*
X107488867Y-104616768D01*
X107456876Y-104568892D01*
X107435997Y-104502215D01*
X107454481Y-104434835D01*
X107456876Y-104431108D01*
X107488867Y-104383231D01*
X107488868Y-104383229D01*
X107500499Y-104324752D01*
X107500500Y-104324750D01*
X107500500Y-103841556D01*
X107520185Y-103774517D01*
X107550189Y-103742290D01*
X107657187Y-103662190D01*
X107657190Y-103662187D01*
X107743350Y-103547093D01*
X107743354Y-103547086D01*
X107793596Y-103412379D01*
X107793598Y-103412372D01*
X107799999Y-103352844D01*
X107800000Y-103352827D01*
X107800000Y-103250000D01*
X104800000Y-103250000D01*
X104800000Y-103352844D01*
X104806401Y-103412372D01*
X104806403Y-103412379D01*
X104851081Y-103532167D01*
X104856065Y-103601859D01*
X104822580Y-103663182D01*
X104761257Y-103696666D01*
X104734899Y-103699500D01*
X93860438Y-103699500D01*
X93822224Y-103709739D01*
X93784009Y-103719979D01*
X93784004Y-103719982D01*
X93715495Y-103759535D01*
X93715487Y-103759541D01*
X93011848Y-104463181D01*
X92950525Y-104496666D01*
X92924167Y-104499500D01*
X91075495Y-104499500D01*
X91008456Y-104479815D01*
X90962701Y-104427011D01*
X90952757Y-104357853D01*
X90981782Y-104294297D01*
X90987814Y-104287819D01*
X91055974Y-104219658D01*
X91055975Y-104219657D01*
X91055977Y-104219655D01*
X91170941Y-104047598D01*
X91250130Y-103856420D01*
X91290500Y-103653465D01*
X91290500Y-103446535D01*
X91250130Y-103243580D01*
X91170941Y-103052402D01*
X91055977Y-102880345D01*
X91055975Y-102880342D01*
X90909657Y-102734024D01*
X90779647Y-102647155D01*
X90737598Y-102619059D01*
X90661688Y-102587616D01*
X90546420Y-102539870D01*
X90546412Y-102539868D01*
X90343469Y-102499500D01*
X90343465Y-102499500D01*
X90136535Y-102499500D01*
X90136530Y-102499500D01*
X89933587Y-102539868D01*
X89933579Y-102539870D01*
X89742403Y-102619058D01*
X89570342Y-102734024D01*
X89424024Y-102880342D01*
X89309058Y-103052403D01*
X89229870Y-103243579D01*
X89229868Y-103243587D01*
X89189500Y-103446530D01*
X89189500Y-103653469D01*
X89229868Y-103856412D01*
X89229870Y-103856420D01*
X89309058Y-104047596D01*
X89424024Y-104219657D01*
X89492186Y-104287819D01*
X89525671Y-104349142D01*
X89520687Y-104418834D01*
X89478815Y-104474767D01*
X89413351Y-104499184D01*
X89404505Y-104499500D01*
X88535495Y-104499500D01*
X88468456Y-104479815D01*
X88422701Y-104427011D01*
X88412757Y-104357853D01*
X88441782Y-104294297D01*
X88447814Y-104287819D01*
X88515974Y-104219658D01*
X88515975Y-104219657D01*
X88515977Y-104219655D01*
X88630941Y-104047598D01*
X88710130Y-103856420D01*
X88750500Y-103653465D01*
X88750500Y-103446535D01*
X88710130Y-103243580D01*
X88630941Y-103052402D01*
X88515977Y-102880345D01*
X88515975Y-102880342D01*
X88369657Y-102734024D01*
X88239647Y-102647155D01*
X88197598Y-102619059D01*
X88121688Y-102587616D01*
X88006420Y-102539870D01*
X88006412Y-102539868D01*
X87803469Y-102499500D01*
X87803465Y-102499500D01*
X87596535Y-102499500D01*
X87596530Y-102499500D01*
X87393587Y-102539868D01*
X87393579Y-102539870D01*
X87202403Y-102619058D01*
X87030342Y-102734024D01*
X86884025Y-102880341D01*
X86884019Y-102880349D01*
X86827602Y-102964784D01*
X86773990Y-103009590D01*
X86704665Y-103018297D01*
X86641638Y-102988143D01*
X86604918Y-102928700D01*
X86600500Y-102895894D01*
X86600500Y-101664105D01*
X86620185Y-101597066D01*
X86672989Y-101551311D01*
X86742147Y-101541367D01*
X86805703Y-101570392D01*
X86827600Y-101595212D01*
X86842005Y-101616770D01*
X86884024Y-101679657D01*
X87030342Y-101825975D01*
X87030345Y-101825977D01*
X87202402Y-101940941D01*
X87393580Y-102020130D01*
X87596530Y-102060499D01*
X87596534Y-102060500D01*
X87596535Y-102060500D01*
X87803466Y-102060500D01*
X87803467Y-102060499D01*
X88006420Y-102020130D01*
X88197598Y-101940941D01*
X88369655Y-101825977D01*
X88515977Y-101679655D01*
X88630941Y-101507598D01*
X88710130Y-101316420D01*
X88750500Y-101113465D01*
X88750500Y-100984500D01*
X88753050Y-100975814D01*
X88751762Y-100966853D01*
X88762740Y-100942812D01*
X88770185Y-100917461D01*
X88777025Y-100911533D01*
X88780787Y-100903297D01*
X88803021Y-100889007D01*
X88822989Y-100871706D01*
X88833503Y-100869418D01*
X88839565Y-100865523D01*
X88874500Y-100860500D01*
X89065500Y-100860500D01*
X89132539Y-100880185D01*
X89178294Y-100932989D01*
X89189500Y-100984500D01*
X89189500Y-101113469D01*
X89229868Y-101316412D01*
X89229870Y-101316420D01*
X89309058Y-101507596D01*
X89424024Y-101679657D01*
X89570342Y-101825975D01*
X89570345Y-101825977D01*
X89742402Y-101940941D01*
X89933580Y-102020130D01*
X90136530Y-102060499D01*
X90136534Y-102060500D01*
X90136535Y-102060500D01*
X90343466Y-102060500D01*
X90343467Y-102060499D01*
X90546420Y-102020130D01*
X90737598Y-101940941D01*
X90909655Y-101825977D01*
X91055977Y-101679655D01*
X91170941Y-101507598D01*
X91174089Y-101500000D01*
X91200164Y-101437048D01*
X91244005Y-101382644D01*
X91310299Y-101360579D01*
X91314725Y-101360500D01*
X96189694Y-101360500D01*
X96189696Y-101360500D01*
X96278840Y-101336614D01*
X96358764Y-101290470D01*
X96615125Y-101034108D01*
X103899500Y-101034108D01*
X103899500Y-101165891D01*
X103933608Y-101293187D01*
X103958680Y-101336612D01*
X103999500Y-101407314D01*
X103999502Y-101407316D01*
X104004505Y-101412319D01*
X104037990Y-101473642D01*
X104033006Y-101543334D01*
X104004505Y-101587681D01*
X103999502Y-101592683D01*
X103999500Y-101592686D01*
X103933608Y-101706812D01*
X103899500Y-101834108D01*
X103899500Y-101965891D01*
X103933608Y-102093187D01*
X103966554Y-102150250D01*
X103999500Y-102207314D01*
X104092686Y-102300500D01*
X104206814Y-102366392D01*
X104334108Y-102400500D01*
X104334110Y-102400500D01*
X104465890Y-102400500D01*
X104465892Y-102400500D01*
X104593186Y-102366392D01*
X104671351Y-102321263D01*
X104739248Y-102304790D01*
X104805276Y-102327642D01*
X104848467Y-102382562D01*
X104855109Y-102452115D01*
X104849532Y-102471982D01*
X104806403Y-102587616D01*
X104806401Y-102587627D01*
X104800000Y-102647155D01*
X104800000Y-102750000D01*
X107800000Y-102750000D01*
X107800000Y-102647172D01*
X107799999Y-102647155D01*
X107793598Y-102587627D01*
X107793596Y-102587620D01*
X107743354Y-102452913D01*
X107743350Y-102452906D01*
X107657190Y-102337812D01*
X107550188Y-102257709D01*
X107508318Y-102201775D01*
X107500500Y-102158443D01*
X107500500Y-101675249D01*
X107500499Y-101675247D01*
X107488868Y-101616770D01*
X107488867Y-101616768D01*
X107456876Y-101568892D01*
X107435997Y-101502215D01*
X107454481Y-101434835D01*
X107456876Y-101431108D01*
X107488867Y-101383231D01*
X107488868Y-101383229D01*
X107500499Y-101324752D01*
X107500500Y-101324750D01*
X107500500Y-100841556D01*
X107520185Y-100774517D01*
X107550189Y-100742290D01*
X107657187Y-100662190D01*
X107657190Y-100662187D01*
X107743350Y-100547093D01*
X107743354Y-100547086D01*
X107793596Y-100412379D01*
X107793598Y-100412372D01*
X107799999Y-100352844D01*
X107800000Y-100352827D01*
X107800000Y-100250000D01*
X104800000Y-100250000D01*
X104800000Y-100352844D01*
X104806401Y-100412372D01*
X104806403Y-100412382D01*
X104849532Y-100528017D01*
X104854516Y-100597708D01*
X104821030Y-100659031D01*
X104759707Y-100692515D01*
X104690015Y-100687530D01*
X104671353Y-100678738D01*
X104636877Y-100658833D01*
X104593187Y-100633608D01*
X104494808Y-100607248D01*
X104465892Y-100599500D01*
X104334108Y-100599500D01*
X104206812Y-100633608D01*
X104092686Y-100699500D01*
X104092683Y-100699502D01*
X103999502Y-100792683D01*
X103999500Y-100792686D01*
X103933608Y-100906812D01*
X103899500Y-101034108D01*
X96615125Y-101034108D01*
X97033080Y-100616152D01*
X97033091Y-100616144D01*
X97041988Y-100607246D01*
X97041990Y-100607246D01*
X98512417Y-99136819D01*
X98573740Y-99103334D01*
X98600098Y-99100500D01*
X104353454Y-99100500D01*
X104382893Y-99109144D01*
X104412879Y-99115667D01*
X104417895Y-99119422D01*
X104420493Y-99120185D01*
X104441120Y-99136807D01*
X104441135Y-99136818D01*
X104488550Y-99184232D01*
X104519530Y-99215212D01*
X104584787Y-99280469D01*
X104584790Y-99280470D01*
X104584793Y-99280473D01*
X104664705Y-99326611D01*
X104664707Y-99326612D01*
X104664708Y-99326612D01*
X104664711Y-99326614D01*
X104750278Y-99349541D01*
X104809936Y-99385904D01*
X104840466Y-99448751D01*
X104834365Y-99512647D01*
X104806404Y-99587616D01*
X104806401Y-99587627D01*
X104800000Y-99647155D01*
X104800000Y-99750000D01*
X107800000Y-99750000D01*
X107800000Y-99647172D01*
X107799999Y-99647155D01*
X107793598Y-99587627D01*
X107793596Y-99587620D01*
X107743354Y-99452913D01*
X107743350Y-99452906D01*
X107657190Y-99337812D01*
X107550188Y-99257709D01*
X107508318Y-99201775D01*
X107500500Y-99158443D01*
X107500500Y-98675249D01*
X107500499Y-98675247D01*
X107488868Y-98616770D01*
X107488867Y-98616768D01*
X107456876Y-98568892D01*
X107435997Y-98502215D01*
X107454481Y-98434835D01*
X107456876Y-98431108D01*
X107488867Y-98383231D01*
X107488868Y-98383229D01*
X107500499Y-98324752D01*
X107500500Y-98324750D01*
X107500500Y-97841556D01*
X107520185Y-97774517D01*
X107550189Y-97742290D01*
X107657187Y-97662190D01*
X107657190Y-97662187D01*
X107743350Y-97547093D01*
X107743354Y-97547086D01*
X107793596Y-97412379D01*
X107793598Y-97412372D01*
X107799999Y-97352844D01*
X107800000Y-97352827D01*
X107800000Y-97250000D01*
X104800000Y-97250000D01*
X104800000Y-97352844D01*
X104806401Y-97412372D01*
X104806403Y-97412383D01*
X104834365Y-97487352D01*
X104839349Y-97557043D01*
X104805863Y-97618366D01*
X104750277Y-97650458D01*
X104711592Y-97660824D01*
X104664706Y-97673387D01*
X104664705Y-97673388D01*
X104584793Y-97719526D01*
X104584788Y-97719530D01*
X104584787Y-97719531D01*
X104441134Y-97863182D01*
X104379813Y-97896666D01*
X104353455Y-97899500D01*
X98150302Y-97899500D01*
X98061158Y-97923386D01*
X98061155Y-97923387D01*
X97981237Y-97969527D01*
X97981232Y-97969531D01*
X95827583Y-100123181D01*
X95766260Y-100156666D01*
X95739902Y-100159500D01*
X91635015Y-100159500D01*
X91567976Y-100139815D01*
X91547334Y-100123181D01*
X90952684Y-99528531D01*
X90952679Y-99528527D01*
X90907553Y-99502474D01*
X90859338Y-99451907D01*
X90846114Y-99383300D01*
X90872082Y-99318436D01*
X90900669Y-99291981D01*
X90909655Y-99285977D01*
X91055977Y-99139655D01*
X91170941Y-98967598D01*
X91250130Y-98776420D01*
X91290500Y-98573465D01*
X91290500Y-98366535D01*
X91250130Y-98163580D01*
X91170941Y-97972402D01*
X91055977Y-97800345D01*
X91055975Y-97800342D01*
X90909657Y-97654024D01*
X90754643Y-97550448D01*
X90737598Y-97539059D01*
X90546420Y-97459870D01*
X90546412Y-97459868D01*
X90343469Y-97419500D01*
X90343465Y-97419500D01*
X90136535Y-97419500D01*
X90136530Y-97419500D01*
X89933587Y-97459868D01*
X89933579Y-97459870D01*
X89742403Y-97539058D01*
X89570342Y-97654024D01*
X89424024Y-97800342D01*
X89309058Y-97972403D01*
X89229870Y-98163579D01*
X89229868Y-98163587D01*
X89189500Y-98366530D01*
X89189500Y-98573469D01*
X89229868Y-98776412D01*
X89229870Y-98776420D01*
X89309058Y-98967596D01*
X89424024Y-99139657D01*
X89570343Y-99285976D01*
X89579334Y-99291983D01*
X89624140Y-99345594D01*
X89632850Y-99414918D01*
X89602697Y-99477947D01*
X89572447Y-99502474D01*
X89527317Y-99528529D01*
X89527315Y-99528531D01*
X88932666Y-100123181D01*
X88871343Y-100156666D01*
X88844985Y-100159500D01*
X88355601Y-100159500D01*
X88288562Y-100139815D01*
X88286750Y-100138628D01*
X88232471Y-100102360D01*
X88197603Y-100079062D01*
X88197595Y-100079057D01*
X88006420Y-99999870D01*
X88006412Y-99999868D01*
X87803469Y-99959500D01*
X87803465Y-99959500D01*
X87596535Y-99959500D01*
X87596530Y-99959500D01*
X87393587Y-99999868D01*
X87393579Y-99999870D01*
X87202403Y-100079058D01*
X87030342Y-100194024D01*
X86884025Y-100340341D01*
X86884019Y-100340349D01*
X86827602Y-100424784D01*
X86773990Y-100469590D01*
X86704665Y-100478297D01*
X86641638Y-100448143D01*
X86604918Y-100388700D01*
X86600500Y-100355894D01*
X86600500Y-99124105D01*
X86620185Y-99057066D01*
X86672989Y-99011311D01*
X86742147Y-99001367D01*
X86805703Y-99030392D01*
X86827600Y-99055212D01*
X86857861Y-99100500D01*
X86884024Y-99139657D01*
X87030342Y-99285975D01*
X87030345Y-99285977D01*
X87202402Y-99400941D01*
X87393580Y-99480130D01*
X87557055Y-99512647D01*
X87596530Y-99520499D01*
X87596534Y-99520500D01*
X87596535Y-99520500D01*
X87803466Y-99520500D01*
X87803467Y-99520499D01*
X88006420Y-99480130D01*
X88197598Y-99400941D01*
X88369655Y-99285977D01*
X88515977Y-99139655D01*
X88630941Y-98967598D01*
X88710130Y-98776420D01*
X88750500Y-98573465D01*
X88750500Y-98366535D01*
X88710130Y-98163580D01*
X88630941Y-97972402D01*
X88515977Y-97800345D01*
X88515975Y-97800342D01*
X88369657Y-97654024D01*
X88214643Y-97550448D01*
X88197598Y-97539059D01*
X88006420Y-97459870D01*
X88006412Y-97459868D01*
X87803469Y-97419500D01*
X87803465Y-97419500D01*
X87596535Y-97419500D01*
X87596530Y-97419500D01*
X87393587Y-97459868D01*
X87393579Y-97459870D01*
X87202403Y-97539058D01*
X87030342Y-97654024D01*
X86884025Y-97800341D01*
X86884019Y-97800349D01*
X86827602Y-97884784D01*
X86773990Y-97929590D01*
X86704665Y-97938297D01*
X86641638Y-97908143D01*
X86604918Y-97848700D01*
X86600500Y-97815894D01*
X86600500Y-96584105D01*
X86620185Y-96517066D01*
X86672989Y-96471311D01*
X86742147Y-96461367D01*
X86805703Y-96490392D01*
X86827600Y-96515212D01*
X86863880Y-96569508D01*
X86884024Y-96599657D01*
X87030342Y-96745975D01*
X87030345Y-96745977D01*
X87202402Y-96860941D01*
X87393580Y-96940130D01*
X87596530Y-96980499D01*
X87596534Y-96980500D01*
X87596535Y-96980500D01*
X87803466Y-96980500D01*
X87803467Y-96980499D01*
X88006420Y-96940130D01*
X88197598Y-96860941D01*
X88369655Y-96745977D01*
X88515977Y-96599655D01*
X88630941Y-96427598D01*
X88710130Y-96236420D01*
X88750500Y-96033465D01*
X88750500Y-95922700D01*
X88753050Y-95914014D01*
X88751762Y-95905053D01*
X88762740Y-95881012D01*
X88770185Y-95855661D01*
X88777025Y-95849733D01*
X88780787Y-95841497D01*
X88803021Y-95827207D01*
X88822989Y-95809906D01*
X88833503Y-95807618D01*
X88839565Y-95803723D01*
X88874500Y-95798700D01*
X89065500Y-95798700D01*
X89132539Y-95818385D01*
X89178294Y-95871189D01*
X89189500Y-95922700D01*
X89189500Y-96033469D01*
X89229868Y-96236412D01*
X89229870Y-96236420D01*
X89309058Y-96427596D01*
X89424024Y-96599657D01*
X89570342Y-96745975D01*
X89570345Y-96745977D01*
X89742402Y-96860941D01*
X89933580Y-96940130D01*
X90136530Y-96980499D01*
X90136534Y-96980500D01*
X90136535Y-96980500D01*
X90343466Y-96980500D01*
X90343467Y-96980499D01*
X90546420Y-96940130D01*
X90737598Y-96860941D01*
X90909655Y-96745977D01*
X91055977Y-96599655D01*
X91170941Y-96427598D01*
X91233162Y-96277381D01*
X91264745Y-96232691D01*
X91274431Y-96223968D01*
X91297812Y-96210470D01*
X91373754Y-96134527D01*
X91376167Y-96132355D01*
X91404858Y-96118583D01*
X91432786Y-96103334D01*
X91437739Y-96102801D01*
X91439157Y-96102121D01*
X91441434Y-96102404D01*
X91459144Y-96100500D01*
X104353454Y-96100500D01*
X104420493Y-96120185D01*
X104441135Y-96136818D01*
X104506093Y-96201775D01*
X104519530Y-96215212D01*
X104584787Y-96280469D01*
X104584790Y-96280470D01*
X104584793Y-96280473D01*
X104664705Y-96326611D01*
X104664707Y-96326612D01*
X104664708Y-96326612D01*
X104664711Y-96326614D01*
X104750278Y-96349541D01*
X104809936Y-96385904D01*
X104840466Y-96448751D01*
X104834365Y-96512647D01*
X104806404Y-96587616D01*
X104806401Y-96587627D01*
X104800000Y-96647155D01*
X104800000Y-96750000D01*
X107800000Y-96750000D01*
X107800000Y-96647172D01*
X107799999Y-96647155D01*
X107793598Y-96587627D01*
X107793596Y-96587620D01*
X107743354Y-96452913D01*
X107743350Y-96452906D01*
X107657190Y-96337812D01*
X107550188Y-96257709D01*
X107508318Y-96201775D01*
X107500500Y-96158443D01*
X107500500Y-95675249D01*
X107500499Y-95675247D01*
X107488868Y-95616770D01*
X107488867Y-95616768D01*
X107456876Y-95568892D01*
X107435997Y-95502215D01*
X107454481Y-95434835D01*
X107456876Y-95431108D01*
X107488867Y-95383231D01*
X107488868Y-95383229D01*
X107500499Y-95324752D01*
X107500500Y-95324750D01*
X107500500Y-94841556D01*
X107520185Y-94774517D01*
X107550189Y-94742290D01*
X107657187Y-94662190D01*
X107657190Y-94662187D01*
X107743350Y-94547093D01*
X107743354Y-94547086D01*
X107793596Y-94412379D01*
X107793598Y-94412372D01*
X107799999Y-94352844D01*
X107800000Y-94352827D01*
X107800000Y-94250000D01*
X104800000Y-94250000D01*
X104800000Y-94352844D01*
X104806401Y-94412372D01*
X104806403Y-94412383D01*
X104834365Y-94487352D01*
X104839349Y-94557043D01*
X104805863Y-94618366D01*
X104750277Y-94650458D01*
X104711592Y-94660824D01*
X104664706Y-94673387D01*
X104664705Y-94673388D01*
X104584793Y-94719526D01*
X104584788Y-94719530D01*
X104584787Y-94719531D01*
X104441134Y-94863182D01*
X104379813Y-94896666D01*
X104353455Y-94899500D01*
X91815371Y-94899500D01*
X91748332Y-94879815D01*
X91727690Y-94863181D01*
X91175040Y-94310531D01*
X91175035Y-94310527D01*
X91095114Y-94264385D01*
X91094121Y-94263974D01*
X91093412Y-94263402D01*
X91088076Y-94260322D01*
X91088556Y-94259489D01*
X91039720Y-94220131D01*
X91017658Y-94153836D01*
X91034940Y-94086137D01*
X91053905Y-94061727D01*
X91055976Y-94059656D01*
X91066367Y-94044105D01*
X91170941Y-93887598D01*
X91250130Y-93696420D01*
X91259926Y-93647172D01*
X91259929Y-93647155D01*
X104800000Y-93647155D01*
X104800000Y-93750000D01*
X106050000Y-93750000D01*
X106550000Y-93750000D01*
X107800000Y-93750000D01*
X107800000Y-93647172D01*
X107799999Y-93647155D01*
X107793598Y-93587627D01*
X107793596Y-93587620D01*
X107743354Y-93452913D01*
X107743350Y-93452906D01*
X107657190Y-93337812D01*
X107657187Y-93337809D01*
X107542093Y-93251649D01*
X107542086Y-93251645D01*
X107407379Y-93201403D01*
X107407372Y-93201401D01*
X107347844Y-93195000D01*
X106550000Y-93195000D01*
X106550000Y-93750000D01*
X106050000Y-93750000D01*
X106050000Y-93195000D01*
X105252155Y-93195000D01*
X105192627Y-93201401D01*
X105192620Y-93201403D01*
X105057913Y-93251645D01*
X105057906Y-93251649D01*
X104942812Y-93337809D01*
X104942809Y-93337812D01*
X104856649Y-93452906D01*
X104856645Y-93452913D01*
X104806403Y-93587620D01*
X104806401Y-93587627D01*
X104800000Y-93647155D01*
X91259929Y-93647155D01*
X91265399Y-93619660D01*
X91290499Y-93493469D01*
X91290500Y-93493466D01*
X91290500Y-93286534D01*
X91290499Y-93286530D01*
X91273566Y-93201401D01*
X91250130Y-93083580D01*
X91170941Y-92892402D01*
X91055977Y-92720345D01*
X91055975Y-92720342D01*
X90909657Y-92574024D01*
X90790717Y-92494552D01*
X90737598Y-92459059D01*
X90546420Y-92379870D01*
X90546412Y-92379868D01*
X90343469Y-92339500D01*
X90343465Y-92339500D01*
X90136535Y-92339500D01*
X90136530Y-92339500D01*
X89933587Y-92379868D01*
X89933579Y-92379870D01*
X89742403Y-92459058D01*
X89570342Y-92574024D01*
X89424024Y-92720342D01*
X89309058Y-92892403D01*
X89229870Y-93083579D01*
X89229868Y-93083587D01*
X89189500Y-93286530D01*
X89189500Y-93493469D01*
X89229868Y-93696412D01*
X89229870Y-93696420D01*
X89309058Y-93887596D01*
X89424024Y-94059657D01*
X89570339Y-94205972D01*
X89574761Y-94209601D01*
X89614096Y-94267346D01*
X89615968Y-94337190D01*
X89583779Y-94393137D01*
X88915537Y-95061381D01*
X88854214Y-95094866D01*
X88827856Y-95097700D01*
X88382841Y-95097700D01*
X88315802Y-95078015D01*
X88313951Y-95076803D01*
X88290870Y-95061381D01*
X88197598Y-94999059D01*
X88006420Y-94919870D01*
X88006412Y-94919868D01*
X87803469Y-94879500D01*
X87803465Y-94879500D01*
X87596535Y-94879500D01*
X87596530Y-94879500D01*
X87393587Y-94919868D01*
X87393579Y-94919870D01*
X87202403Y-94999058D01*
X87030342Y-95114024D01*
X86884025Y-95260341D01*
X86884019Y-95260349D01*
X86827602Y-95344784D01*
X86773990Y-95389590D01*
X86704665Y-95398297D01*
X86641638Y-95368143D01*
X86604918Y-95308700D01*
X86600500Y-95275894D01*
X86600500Y-94044105D01*
X86620185Y-93977066D01*
X86672989Y-93931311D01*
X86742147Y-93921367D01*
X86805703Y-93950392D01*
X86827600Y-93975212D01*
X86863880Y-94029508D01*
X86884024Y-94059657D01*
X87030342Y-94205975D01*
X87030345Y-94205977D01*
X87202402Y-94320941D01*
X87393580Y-94400130D01*
X87596530Y-94440499D01*
X87596534Y-94440500D01*
X87596535Y-94440500D01*
X87803466Y-94440500D01*
X87803467Y-94440499D01*
X88006420Y-94400130D01*
X88197598Y-94320941D01*
X88369655Y-94205977D01*
X88515977Y-94059655D01*
X88630941Y-93887598D01*
X88710130Y-93696420D01*
X88750500Y-93493465D01*
X88750500Y-93286535D01*
X88710130Y-93083580D01*
X88630941Y-92892402D01*
X88515977Y-92720345D01*
X88515975Y-92720342D01*
X88369657Y-92574024D01*
X88250717Y-92494552D01*
X88197598Y-92459059D01*
X88006420Y-92379870D01*
X88006412Y-92379868D01*
X87803469Y-92339500D01*
X87803465Y-92339500D01*
X87596535Y-92339500D01*
X87596530Y-92339500D01*
X87393587Y-92379868D01*
X87393579Y-92379870D01*
X87202403Y-92459058D01*
X87030342Y-92574024D01*
X86884025Y-92720341D01*
X86884019Y-92720349D01*
X86827602Y-92804784D01*
X86773990Y-92849590D01*
X86704665Y-92858297D01*
X86641638Y-92828143D01*
X86604918Y-92768700D01*
X86600500Y-92735894D01*
X86600500Y-91504105D01*
X86620185Y-91437066D01*
X86672989Y-91391311D01*
X86742147Y-91381367D01*
X86805703Y-91410392D01*
X86827600Y-91435212D01*
X86863880Y-91489508D01*
X86884024Y-91519657D01*
X87030342Y-91665975D01*
X87030345Y-91665977D01*
X87202402Y-91780941D01*
X87393580Y-91860130D01*
X87538052Y-91888867D01*
X87596530Y-91900499D01*
X87596534Y-91900500D01*
X87596535Y-91900500D01*
X87803466Y-91900500D01*
X87803467Y-91900499D01*
X88006420Y-91860130D01*
X88197598Y-91780941D01*
X88369655Y-91665977D01*
X88515977Y-91519655D01*
X88630941Y-91347598D01*
X88710130Y-91156420D01*
X88750500Y-90953465D01*
X88750500Y-90746535D01*
X88710130Y-90543580D01*
X88630941Y-90352402D01*
X88515977Y-90180345D01*
X88515975Y-90180342D01*
X88369657Y-90034024D01*
X88289173Y-89980247D01*
X89189500Y-89980247D01*
X89189500Y-91719752D01*
X89201131Y-91778229D01*
X89201132Y-91778230D01*
X89245447Y-91844552D01*
X89311769Y-91888867D01*
X89311770Y-91888868D01*
X89370247Y-91900499D01*
X89370250Y-91900500D01*
X89370252Y-91900500D01*
X91109750Y-91900500D01*
X91109751Y-91900499D01*
X91124568Y-91897552D01*
X91168229Y-91888868D01*
X91168229Y-91888867D01*
X91168231Y-91888867D01*
X91234552Y-91844552D01*
X91278867Y-91778231D01*
X91278867Y-91778229D01*
X91278868Y-91778229D01*
X91290499Y-91719752D01*
X91290500Y-91719750D01*
X91290500Y-89980249D01*
X91290499Y-89980247D01*
X91278868Y-89921770D01*
X91278867Y-89921769D01*
X91234552Y-89855447D01*
X91168230Y-89811132D01*
X91168229Y-89811131D01*
X91109752Y-89799500D01*
X91109748Y-89799500D01*
X89370252Y-89799500D01*
X89370247Y-89799500D01*
X89311770Y-89811131D01*
X89311769Y-89811132D01*
X89245447Y-89855447D01*
X89201132Y-89921769D01*
X89201131Y-89921770D01*
X89189500Y-89980247D01*
X88289173Y-89980247D01*
X88201655Y-89921770D01*
X88197598Y-89919059D01*
X88006420Y-89839870D01*
X88006412Y-89839868D01*
X87803469Y-89799500D01*
X87803465Y-89799500D01*
X87596535Y-89799500D01*
X87596530Y-89799500D01*
X87393587Y-89839868D01*
X87393579Y-89839870D01*
X87202403Y-89919058D01*
X87030342Y-90034024D01*
X86884024Y-90180342D01*
X86769058Y-90352403D01*
X86719125Y-90472953D01*
X86675284Y-90527356D01*
X86608990Y-90549421D01*
X86604564Y-90549500D01*
X86510438Y-90549500D01*
X86472224Y-90559739D01*
X86434009Y-90569979D01*
X86434004Y-90569982D01*
X86365495Y-90609535D01*
X86365487Y-90609541D01*
X86059541Y-90915487D01*
X86059535Y-90915495D01*
X86019982Y-90984004D01*
X86019979Y-90984009D01*
X86006326Y-91034962D01*
X85999500Y-91060438D01*
X84800500Y-91060438D01*
X84800500Y-89650247D01*
X107099500Y-89650247D01*
X107099500Y-92369752D01*
X107111131Y-92428229D01*
X107111132Y-92428230D01*
X107155447Y-92494552D01*
X107221769Y-92538867D01*
X107221770Y-92538868D01*
X107280247Y-92550499D01*
X107280250Y-92550500D01*
X107280252Y-92550500D01*
X110919750Y-92550500D01*
X110919751Y-92550499D01*
X110934568Y-92547552D01*
X110978229Y-92538868D01*
X110978229Y-92538867D01*
X110978231Y-92538867D01*
X111044552Y-92494552D01*
X111088867Y-92428231D01*
X111088867Y-92428229D01*
X111088868Y-92428229D01*
X111100499Y-92369752D01*
X111100500Y-92369750D01*
X111100500Y-89650249D01*
X111100499Y-89650247D01*
X111088868Y-89591770D01*
X111088867Y-89591769D01*
X111044552Y-89525447D01*
X110978230Y-89481132D01*
X110978229Y-89481131D01*
X110919752Y-89469500D01*
X110919748Y-89469500D01*
X107280252Y-89469500D01*
X107280247Y-89469500D01*
X107221770Y-89481131D01*
X107221769Y-89481132D01*
X107155447Y-89525447D01*
X107111132Y-89591769D01*
X107111131Y-89591770D01*
X107099500Y-89650247D01*
X84800500Y-89650247D01*
X84800500Y-83115258D01*
X85949500Y-83115258D01*
X85949500Y-83344741D01*
X85974446Y-83534215D01*
X85979452Y-83572238D01*
X85979453Y-83572240D01*
X86038842Y-83793887D01*
X86126650Y-84005876D01*
X86126657Y-84005890D01*
X86241392Y-84204617D01*
X86381081Y-84386661D01*
X86381089Y-84386670D01*
X86543330Y-84548911D01*
X86543338Y-84548918D01*
X86725382Y-84688607D01*
X86725385Y-84688608D01*
X86725388Y-84688611D01*
X86924112Y-84803344D01*
X86924117Y-84803346D01*
X86924123Y-84803349D01*
X87015480Y-84841190D01*
X87136113Y-84891158D01*
X87357762Y-84950548D01*
X87585266Y-84980500D01*
X87585273Y-84980500D01*
X87814727Y-84980500D01*
X87814734Y-84980500D01*
X88042238Y-84950548D01*
X88263887Y-84891158D01*
X88475888Y-84803344D01*
X88674612Y-84688611D01*
X88856661Y-84548919D01*
X88856665Y-84548914D01*
X88856670Y-84548911D01*
X89018911Y-84386670D01*
X89018914Y-84386665D01*
X89018919Y-84386661D01*
X89158611Y-84204612D01*
X89273344Y-84005888D01*
X89361158Y-83793887D01*
X89420548Y-83572238D01*
X89450500Y-83344734D01*
X89450500Y-83115266D01*
X89450499Y-83115258D01*
X108809500Y-83115258D01*
X108809500Y-83344741D01*
X108834446Y-83534215D01*
X108839452Y-83572238D01*
X108839453Y-83572240D01*
X108898842Y-83793887D01*
X108986650Y-84005876D01*
X108986657Y-84005890D01*
X109101392Y-84204617D01*
X109241081Y-84386661D01*
X109241089Y-84386670D01*
X109403330Y-84548911D01*
X109403338Y-84548918D01*
X109585382Y-84688607D01*
X109585385Y-84688608D01*
X109585388Y-84688611D01*
X109784112Y-84803344D01*
X109784117Y-84803346D01*
X109784123Y-84803349D01*
X109875480Y-84841190D01*
X109996113Y-84891158D01*
X110217762Y-84950548D01*
X110445266Y-84980500D01*
X110445273Y-84980500D01*
X110674727Y-84980500D01*
X110674734Y-84980500D01*
X110902238Y-84950548D01*
X111123887Y-84891158D01*
X111335888Y-84803344D01*
X111534612Y-84688611D01*
X111716661Y-84548919D01*
X111716665Y-84548914D01*
X111716670Y-84548911D01*
X111878911Y-84386670D01*
X111878914Y-84386665D01*
X111878919Y-84386661D01*
X112018611Y-84204612D01*
X112133344Y-84005888D01*
X112221158Y-83793887D01*
X112280548Y-83572238D01*
X112310500Y-83344734D01*
X112310500Y-83115266D01*
X112280548Y-82887762D01*
X112221158Y-82666113D01*
X112133344Y-82454112D01*
X112018611Y-82255388D01*
X112018608Y-82255385D01*
X112018607Y-82255382D01*
X111878918Y-82073338D01*
X111878911Y-82073330D01*
X111716670Y-81911089D01*
X111716661Y-81911081D01*
X111534617Y-81771392D01*
X111335890Y-81656657D01*
X111335876Y-81656650D01*
X111123887Y-81568842D01*
X110902238Y-81509452D01*
X110864215Y-81504446D01*
X110674741Y-81479500D01*
X110674734Y-81479500D01*
X110445266Y-81479500D01*
X110445258Y-81479500D01*
X110228715Y-81508009D01*
X110217762Y-81509452D01*
X110124076Y-81534554D01*
X109996112Y-81568842D01*
X109784123Y-81656650D01*
X109784109Y-81656657D01*
X109585382Y-81771392D01*
X109403338Y-81911081D01*
X109241081Y-82073338D01*
X109101392Y-82255382D01*
X108986657Y-82454109D01*
X108986650Y-82454123D01*
X108898842Y-82666112D01*
X108839453Y-82887759D01*
X108839451Y-82887770D01*
X108809500Y-83115258D01*
X89450499Y-83115258D01*
X89420548Y-82887762D01*
X89361158Y-82666113D01*
X89273344Y-82454112D01*
X89158611Y-82255388D01*
X89158608Y-82255385D01*
X89158607Y-82255382D01*
X89018918Y-82073338D01*
X89018911Y-82073330D01*
X88856670Y-81911089D01*
X88856661Y-81911081D01*
X88674617Y-81771392D01*
X88475890Y-81656657D01*
X88475876Y-81656650D01*
X88263887Y-81568842D01*
X88042238Y-81509452D01*
X88004215Y-81504446D01*
X87814741Y-81479500D01*
X87814734Y-81479500D01*
X87585266Y-81479500D01*
X87585258Y-81479500D01*
X87368715Y-81508009D01*
X87357762Y-81509452D01*
X87264076Y-81534554D01*
X87136112Y-81568842D01*
X86924123Y-81656650D01*
X86924109Y-81656657D01*
X86725382Y-81771392D01*
X86543338Y-81911081D01*
X86381081Y-82073338D01*
X86241392Y-82255382D01*
X86126657Y-82454109D01*
X86126650Y-82454123D01*
X86038842Y-82666112D01*
X85979453Y-82887759D01*
X85979451Y-82887770D01*
X85949500Y-83115258D01*
X84800500Y-83115258D01*
X84800500Y-82553750D01*
X84800726Y-82546263D01*
X84818271Y-82256205D01*
X84820076Y-82241340D01*
X84850864Y-82073339D01*
X84871780Y-81959197D01*
X84875364Y-81944663D01*
X84885829Y-81911081D01*
X84960696Y-81670822D01*
X84965998Y-81656841D01*
X85083731Y-81395249D01*
X85090676Y-81382016D01*
X85239080Y-81136526D01*
X85247567Y-81124230D01*
X85424480Y-80898417D01*
X85434395Y-80887226D01*
X85637226Y-80684395D01*
X85648417Y-80674480D01*
X85874230Y-80497567D01*
X85886526Y-80489080D01*
X86132016Y-80340676D01*
X86145249Y-80333731D01*
X86406841Y-80215998D01*
X86420822Y-80210696D01*
X86694668Y-80125362D01*
X86709197Y-80121780D01*
X86991344Y-80070075D01*
X87006201Y-80068271D01*
X87296264Y-80050726D01*
X87303751Y-80050500D01*
X87365892Y-80050500D01*
X111234108Y-80050500D01*
X111296249Y-80050500D01*
X111303736Y-80050726D01*
G37*
%TD.AperFunction*%
%TD*%
M02*
