%TF.GenerationSoftware,KiCad,Pcbnew,9.0.0*%
%TF.CreationDate,2025-08-11T15:21:08+02:00*%
%TF.ProjectId,ov5640_adapter,6f763536-3430-45f6-9164-61707465722e,rev?*%
%TF.SameCoordinates,Original*%
%TF.FileFunction,Legend,Top*%
%TF.FilePolarity,Positive*%
%FSLAX46Y46*%
G04 Gerber Fmt 4.6, Leading zero omitted, Abs format (unit mm)*
G04 Created by KiCad (PCBNEW 9.0.0) date 2025-08-11 15:21:08*
%MOMM*%
%LPD*%
G01*
G04 APERTURE LIST*
%ADD10C,0.100000*%
%ADD11C,0.200000*%
%ADD12C,0.150000*%
%ADD13C,0.254000*%
%ADD14C,0.120000*%
G04 APERTURE END LIST*
D10*
G36*
X97349188Y-82569462D02*
G01*
X97112578Y-82569462D01*
X97388389Y-83480000D01*
X97659987Y-83480000D01*
X97928777Y-82569462D01*
X97696379Y-82569462D01*
X97529745Y-83268607D01*
X97349188Y-82569462D01*
G37*
G36*
X98433418Y-82562024D02*
G01*
X98504710Y-82579056D01*
X98564027Y-82608171D01*
X98590145Y-82627532D01*
X98613634Y-82649911D01*
X98635506Y-82676574D01*
X98654610Y-82706451D01*
X98672168Y-82742176D01*
X98686663Y-82781500D01*
X98699151Y-82828759D01*
X98708146Y-82880187D01*
X98714176Y-82942211D01*
X98716154Y-83009160D01*
X98715253Y-83061628D01*
X98705112Y-83176003D01*
X98685038Y-83265459D01*
X98656169Y-83335940D01*
X98618807Y-83391518D01*
X98572193Y-83434847D01*
X98544797Y-83452389D01*
X98514395Y-83467130D01*
X98480095Y-83479168D01*
X98442374Y-83488018D01*
X98399288Y-83493702D01*
X98352172Y-83495631D01*
X98276125Y-83490578D01*
X98205164Y-83473519D01*
X98147304Y-83445275D01*
X98122221Y-83426746D01*
X98099500Y-83405098D01*
X98078601Y-83379501D01*
X98060193Y-83350427D01*
X98043766Y-83316479D01*
X98329762Y-83316479D01*
X98360598Y-83317883D01*
X98398149Y-83313392D01*
X98416394Y-83306589D01*
X98432163Y-83296662D01*
X98446845Y-83282100D01*
X98458961Y-83263677D01*
X98470844Y-83235134D01*
X98479505Y-83200395D01*
X98488393Y-83121611D01*
X98490779Y-83021800D01*
X98490332Y-82974170D01*
X98483757Y-82874460D01*
X98329762Y-83316479D01*
X98043766Y-83316479D01*
X98043392Y-83315707D01*
X98029383Y-83276868D01*
X98017357Y-83230047D01*
X98008592Y-83178135D01*
X98002722Y-83115144D01*
X98000767Y-83045675D01*
X98001176Y-83018991D01*
X98224799Y-83018991D01*
X98226854Y-83124641D01*
X98235973Y-83204188D01*
X98396990Y-82739760D01*
X98354980Y-82734143D01*
X98315444Y-82740681D01*
X98297758Y-82749405D01*
X98282360Y-82761609D01*
X98267307Y-82779788D01*
X98254904Y-82802215D01*
X98242821Y-82835915D01*
X98234166Y-82875574D01*
X98226947Y-82942092D01*
X98224799Y-83018991D01*
X98001176Y-83018991D01*
X98001417Y-83003222D01*
X98011555Y-82886159D01*
X98032256Y-82793917D01*
X98062001Y-82721186D01*
X98100248Y-82663984D01*
X98147584Y-82619582D01*
X98175315Y-82601630D01*
X98205804Y-82586660D01*
X98240261Y-82574398D01*
X98277833Y-82565449D01*
X98320868Y-82559679D01*
X98367559Y-82557739D01*
X98433418Y-82562024D01*
G37*
G36*
X99068230Y-83375280D02*
G01*
X99070190Y-83402477D01*
X99076092Y-83426427D01*
X99084755Y-83445034D01*
X99096633Y-83460864D01*
X99128197Y-83483018D01*
X99173006Y-83494416D01*
X99197008Y-83495631D01*
X99226561Y-83493695D01*
X99252413Y-83487958D01*
X99272812Y-83479455D01*
X99290027Y-83467934D01*
X99303415Y-83454246D01*
X99313856Y-83437971D01*
X99325858Y-83397289D01*
X99327189Y-83375280D01*
X99325282Y-83350467D01*
X99319753Y-83328564D01*
X99311146Y-83309993D01*
X99299629Y-83294150D01*
X99268310Y-83270249D01*
X99225438Y-83256938D01*
X99197008Y-83254869D01*
X99169921Y-83256792D01*
X99145624Y-83262440D01*
X99125198Y-83271139D01*
X99107638Y-83282905D01*
X99093515Y-83297072D01*
X99082372Y-83313822D01*
X99069594Y-83354517D01*
X99068230Y-83375280D01*
G37*
G36*
X99718405Y-83480000D02*
G01*
X100369434Y-83480000D01*
X100369434Y-83295230D01*
X100149616Y-83295230D01*
X100149616Y-82557739D01*
X99757606Y-82631927D01*
X99757606Y-82798440D01*
X99929797Y-82776031D01*
X99929797Y-83295230D01*
X99718405Y-83295230D01*
X99718405Y-83480000D01*
G37*
G36*
X93837250Y-81108025D02*
G01*
X93927942Y-81116987D01*
X94000243Y-81137200D01*
X94058971Y-81168034D01*
X94084328Y-81187688D01*
X94107307Y-81210429D01*
X94128346Y-81236999D01*
X94146887Y-81267030D01*
X94163730Y-81302582D01*
X94177783Y-81342251D01*
X94189799Y-81389762D01*
X94198563Y-81442383D01*
X94204415Y-81505932D01*
X94206367Y-81576013D01*
X94205215Y-81624670D01*
X94193535Y-81728574D01*
X94170829Y-81814050D01*
X94138478Y-81883691D01*
X94097010Y-81939791D01*
X94045973Y-81983979D01*
X94016416Y-82001873D01*
X93983933Y-82016902D01*
X93947880Y-82029082D01*
X93908622Y-82038026D01*
X93864702Y-82043703D01*
X93817166Y-82045631D01*
X93810450Y-82045596D01*
X93722562Y-82037714D01*
X93649683Y-82017287D01*
X93588913Y-81985171D01*
X93562249Y-81964506D01*
X93538191Y-81940856D01*
X93515998Y-81913232D01*
X93496549Y-81882441D01*
X93478898Y-81846363D01*
X93464268Y-81806768D01*
X93451854Y-81760208D01*
X93442870Y-81709619D01*
X93436950Y-81650079D01*
X93434987Y-81585844D01*
X93674345Y-81585844D01*
X93676440Y-81680824D01*
X93685703Y-81756376D01*
X93701923Y-81803612D01*
X93725736Y-81834634D01*
X93741902Y-81846059D01*
X93761092Y-81854457D01*
X93786835Y-81860313D01*
X93817166Y-81862266D01*
X93867390Y-81857342D01*
X93905139Y-81841856D01*
X93920411Y-81829270D01*
X93933013Y-81813388D01*
X93945061Y-81789497D01*
X93953975Y-81760272D01*
X93964350Y-81681410D01*
X93966948Y-81576013D01*
X93965352Y-81485194D01*
X93956854Y-81400557D01*
X93941819Y-81351150D01*
X93919440Y-81319975D01*
X93903319Y-81308279D01*
X93884027Y-81299845D01*
X93853214Y-81293227D01*
X93815762Y-81291165D01*
X93766539Y-81296648D01*
X93731807Y-81312875D01*
X93717414Y-81326368D01*
X93705534Y-81343536D01*
X93694021Y-81370099D01*
X93685586Y-81403010D01*
X93676727Y-81481640D01*
X93674345Y-81585844D01*
X93434987Y-81585844D01*
X93435998Y-81540074D01*
X93447593Y-81433341D01*
X93470477Y-81345088D01*
X93503062Y-81273136D01*
X93544553Y-81215358D01*
X93595098Y-81170123D01*
X93624091Y-81151919D01*
X93655789Y-81136670D01*
X93690705Y-81124372D01*
X93728525Y-81115364D01*
X93770535Y-81109669D01*
X93815762Y-81107739D01*
X93837250Y-81108025D01*
G37*
G36*
X94488407Y-81119462D02*
G01*
X94251796Y-81119462D01*
X94527608Y-82030000D01*
X94799206Y-82030000D01*
X95067995Y-81119462D01*
X94835598Y-81119462D01*
X94668963Y-81818607D01*
X94488407Y-81119462D01*
G37*
G36*
X95462020Y-81304293D02*
G01*
X95799380Y-81304293D01*
X95799380Y-81119462D01*
X95257588Y-81119462D01*
X95257588Y-81611245D01*
X95337699Y-81613173D01*
X95404741Y-81618851D01*
X95453795Y-81626834D01*
X95494235Y-81637498D01*
X95523614Y-81649181D01*
X95547216Y-81662835D01*
X95564332Y-81677142D01*
X95577344Y-81693006D01*
X95592651Y-81729146D01*
X95596414Y-81765484D01*
X95589165Y-81800413D01*
X95568189Y-81830104D01*
X95533606Y-81853529D01*
X95487853Y-81866675D01*
X95468981Y-81867883D01*
X95441315Y-81865913D01*
X95413266Y-81859933D01*
X95356507Y-81835470D01*
X95299206Y-81792879D01*
X95275785Y-81769698D01*
X95176378Y-81943476D01*
X95211313Y-81969260D01*
X95247288Y-81991061D01*
X95322694Y-82023465D01*
X95403193Y-82041501D01*
X95467576Y-82045631D01*
X95513196Y-82043720D01*
X95555660Y-82038157D01*
X95595013Y-82029184D01*
X95631201Y-82017065D01*
X95664467Y-82001928D01*
X95694519Y-81984119D01*
X95745655Y-81940819D01*
X95784227Y-81888583D01*
X95809396Y-81829095D01*
X95820075Y-81764693D01*
X95820385Y-81751502D01*
X95818419Y-81714826D01*
X95812473Y-81679265D01*
X95802991Y-81646575D01*
X95789737Y-81615468D01*
X95773452Y-81587424D01*
X95753594Y-81561327D01*
X95730932Y-81538159D01*
X95704823Y-81517259D01*
X95675767Y-81499144D01*
X95643289Y-81483636D01*
X95607432Y-81470971D01*
X95568075Y-81461313D01*
X95524763Y-81454826D01*
X95477789Y-81451823D01*
X95462020Y-81451632D01*
X95462020Y-81304293D01*
G37*
G36*
X96512984Y-81109007D02*
G01*
X96569102Y-81114581D01*
X96627424Y-81124591D01*
X96627424Y-81313635D01*
X96550842Y-81296810D01*
X96470621Y-81289760D01*
X96431278Y-81291888D01*
X96372922Y-81305041D01*
X96325929Y-81329267D01*
X96288552Y-81364959D01*
X96273202Y-81387811D01*
X96260316Y-81414270D01*
X96249853Y-81445438D01*
X96242437Y-81480819D01*
X96247621Y-81478500D01*
X96322770Y-81453088D01*
X96376831Y-81445832D01*
X96433469Y-81449382D01*
X96501868Y-81465522D01*
X96557523Y-81493197D01*
X96601675Y-81531772D01*
X96619718Y-81555406D01*
X96634780Y-81581739D01*
X96647120Y-81611689D01*
X96656125Y-81644401D01*
X96661878Y-81681429D01*
X96663817Y-81721338D01*
X96663536Y-81738480D01*
X96653810Y-81818109D01*
X96631593Y-81884798D01*
X96598097Y-81939679D01*
X96553542Y-81983601D01*
X96526781Y-82001603D01*
X96497190Y-82016668D01*
X96463886Y-82028975D01*
X96427643Y-82037975D01*
X96387000Y-82043697D01*
X96343248Y-82045631D01*
X96296280Y-82043506D01*
X96223131Y-82029518D01*
X96163286Y-82003541D01*
X96137187Y-81985871D01*
X96113850Y-81965274D01*
X96092107Y-81940433D01*
X96073224Y-81912483D01*
X96055711Y-81878447D01*
X96041338Y-81840892D01*
X96028720Y-81794473D01*
X96019697Y-81743863D01*
X96013453Y-81680041D01*
X96012542Y-81648736D01*
X96235415Y-81648736D01*
X96235583Y-81671777D01*
X96241494Y-81757066D01*
X96254791Y-81808031D01*
X96275172Y-81840128D01*
X96289017Y-81851622D01*
X96305587Y-81860058D01*
X96327945Y-81865928D01*
X96354422Y-81867883D01*
X96381417Y-81864036D01*
X96397663Y-81856660D01*
X96410968Y-81845970D01*
X96423837Y-81828680D01*
X96432959Y-81807911D01*
X96440412Y-81774196D01*
X96442594Y-81738068D01*
X96436005Y-81685373D01*
X96419129Y-81652890D01*
X96405989Y-81640786D01*
X96390136Y-81632099D01*
X96366548Y-81625621D01*
X96339035Y-81623579D01*
X96296260Y-81627510D01*
X96263594Y-81636158D01*
X96235415Y-81648736D01*
X96012542Y-81648736D01*
X96011444Y-81611001D01*
X96015425Y-81529990D01*
X96032699Y-81432702D01*
X96062223Y-81349283D01*
X96102931Y-81278634D01*
X96127356Y-81247768D01*
X96154344Y-81219936D01*
X96184220Y-81194827D01*
X96216524Y-81172865D01*
X96252045Y-81153633D01*
X96289896Y-81137737D01*
X96331311Y-81124838D01*
X96374969Y-81115529D01*
X96422428Y-81109689D01*
X96472025Y-81107739D01*
X96512984Y-81109007D01*
G37*
G36*
X97416207Y-81684457D02*
G01*
X97533810Y-81684457D01*
X97533810Y-81858053D01*
X97416207Y-81858053D01*
X97416207Y-82030000D01*
X97197854Y-82030000D01*
X97197854Y-81858053D01*
X96818422Y-81858053D01*
X96818422Y-81734893D01*
X96849517Y-81684457D01*
X97027067Y-81684457D01*
X97197854Y-81684457D01*
X97197854Y-81391488D01*
X97027067Y-81684457D01*
X96849517Y-81684457D01*
X97197854Y-81119462D01*
X97416207Y-81119462D01*
X97416207Y-81684457D01*
G37*
G36*
X98090292Y-81112024D02*
G01*
X98161583Y-81129056D01*
X98220901Y-81158171D01*
X98247019Y-81177532D01*
X98270508Y-81199911D01*
X98292380Y-81226574D01*
X98311484Y-81256451D01*
X98329041Y-81292176D01*
X98343537Y-81331500D01*
X98356025Y-81378759D01*
X98365020Y-81430187D01*
X98371050Y-81492211D01*
X98373028Y-81559160D01*
X98372127Y-81611628D01*
X98361986Y-81726003D01*
X98341912Y-81815459D01*
X98313042Y-81885940D01*
X98275680Y-81941518D01*
X98229067Y-81984847D01*
X98201670Y-82002389D01*
X98171268Y-82017130D01*
X98136968Y-82029168D01*
X98099248Y-82038018D01*
X98056162Y-82043702D01*
X98009045Y-82045631D01*
X97932998Y-82040578D01*
X97862038Y-82023519D01*
X97804177Y-81995275D01*
X97779094Y-81976746D01*
X97756374Y-81955098D01*
X97735475Y-81929501D01*
X97717066Y-81900427D01*
X97700640Y-81866479D01*
X97986636Y-81866479D01*
X98017472Y-81867883D01*
X98055023Y-81863392D01*
X98073268Y-81856589D01*
X98089037Y-81846662D01*
X98103719Y-81832100D01*
X98115834Y-81813677D01*
X98127718Y-81785134D01*
X98136378Y-81750395D01*
X98145267Y-81671611D01*
X98147653Y-81571800D01*
X98147206Y-81524170D01*
X98140631Y-81424460D01*
X97986636Y-81866479D01*
X97700640Y-81866479D01*
X97700266Y-81865707D01*
X97686257Y-81826868D01*
X97674230Y-81780047D01*
X97665466Y-81728135D01*
X97659596Y-81665144D01*
X97657641Y-81595675D01*
X97658049Y-81568991D01*
X97881673Y-81568991D01*
X97883727Y-81674641D01*
X97892847Y-81754188D01*
X98053864Y-81289760D01*
X98011854Y-81284143D01*
X97972317Y-81290681D01*
X97954631Y-81299405D01*
X97939234Y-81311609D01*
X97924181Y-81329788D01*
X97911777Y-81352215D01*
X97899695Y-81385915D01*
X97891040Y-81425574D01*
X97883820Y-81492092D01*
X97881673Y-81568991D01*
X97658049Y-81568991D01*
X97658290Y-81553222D01*
X97668429Y-81436159D01*
X97689130Y-81343917D01*
X97718875Y-81271186D01*
X97757122Y-81213984D01*
X97804458Y-81169582D01*
X97832189Y-81151630D01*
X97862678Y-81136660D01*
X97897135Y-81124398D01*
X97934706Y-81115449D01*
X97977742Y-81109679D01*
X98024433Y-81107739D01*
X98090292Y-81112024D01*
G37*
G36*
X98547295Y-82210434D02*
G01*
X99163276Y-82210434D01*
X99163276Y-82088618D01*
X98547295Y-82088618D01*
X98547295Y-82210434D01*
G37*
G36*
X100108862Y-82030000D02*
G01*
X99869504Y-82030000D01*
X99819068Y-81842421D01*
X99557301Y-81842421D01*
X99511078Y-82030000D01*
X99280085Y-82030000D01*
X99393785Y-81667482D01*
X99600715Y-81667482D01*
X99772906Y-81667482D01*
X99683269Y-81335068D01*
X99600715Y-81667482D01*
X99393785Y-81667482D01*
X99565666Y-81119462D01*
X99819068Y-81119462D01*
X100108862Y-82030000D01*
G37*
G36*
X100506141Y-81120229D02*
G01*
X100610312Y-81131211D01*
X100693521Y-81153526D01*
X100760336Y-81185983D01*
X100788818Y-81206091D01*
X100814181Y-81228747D01*
X100837239Y-81254815D01*
X100857196Y-81283533D01*
X100875268Y-81317188D01*
X100890066Y-81353794D01*
X100902803Y-81397697D01*
X100911904Y-81445096D01*
X100918111Y-81503532D01*
X100920115Y-81566366D01*
X100916163Y-81652095D01*
X100901165Y-81740835D01*
X100875763Y-81815102D01*
X100840357Y-81877092D01*
X100794544Y-81928458D01*
X100736980Y-81970065D01*
X100703084Y-81987231D01*
X100665427Y-82001796D01*
X100623286Y-82013683D01*
X100576910Y-82022485D01*
X100524829Y-82028083D01*
X100467899Y-82030000D01*
X100168335Y-82030000D01*
X100168335Y-81843825D01*
X100393710Y-81843825D01*
X100479134Y-81843825D01*
X100546045Y-81837688D01*
X100595655Y-81820293D01*
X100615552Y-81807309D01*
X100632045Y-81791773D01*
X100647198Y-81770963D01*
X100658752Y-81747197D01*
X100669527Y-81710616D01*
X100675747Y-81669546D01*
X100679291Y-81576135D01*
X100678816Y-81533345D01*
X100672132Y-81450760D01*
X100657468Y-81396707D01*
X100634191Y-81358337D01*
X100618313Y-81342969D01*
X100599156Y-81330053D01*
X100574458Y-81318894D01*
X100545215Y-81310647D01*
X100505853Y-81304835D01*
X100459534Y-81302889D01*
X100393710Y-81302889D01*
X100393710Y-81843825D01*
X100168335Y-81843825D01*
X100168335Y-81119462D01*
X100466495Y-81119462D01*
X100506141Y-81120229D01*
G37*
G36*
X101787299Y-82030000D02*
G01*
X101547941Y-82030000D01*
X101497505Y-81842421D01*
X101235737Y-81842421D01*
X101189515Y-82030000D01*
X100958522Y-82030000D01*
X101072222Y-81667482D01*
X101279152Y-81667482D01*
X101451343Y-81667482D01*
X101361706Y-81335068D01*
X101279152Y-81667482D01*
X101072222Y-81667482D01*
X101244103Y-81119462D01*
X101497505Y-81119462D01*
X101787299Y-82030000D01*
G37*
G36*
X102258391Y-81119607D02*
G01*
X102348363Y-81128580D01*
X102421300Y-81149893D01*
X102452328Y-81164738D01*
X102479943Y-81182175D01*
X102504777Y-81202537D01*
X102526250Y-81225271D01*
X102545360Y-81251607D01*
X102560984Y-81280182D01*
X102574091Y-81313337D01*
X102583435Y-81348615D01*
X102589541Y-81389401D01*
X102591530Y-81432093D01*
X102590005Y-81468878D01*
X102576595Y-81541808D01*
X102550484Y-81604374D01*
X102512353Y-81657049D01*
X102488719Y-81679779D01*
X102462001Y-81699999D01*
X102431817Y-81717779D01*
X102398473Y-81732722D01*
X102361073Y-81744941D01*
X102320364Y-81753907D01*
X102275006Y-81759588D01*
X102226142Y-81761516D01*
X102107135Y-81761516D01*
X102107135Y-82030000D01*
X101881760Y-82030000D01*
X101881760Y-81576685D01*
X102107135Y-81576685D01*
X102221929Y-81576685D01*
X102255100Y-81574629D01*
X102296275Y-81562829D01*
X102324935Y-81540544D01*
X102336083Y-81523651D01*
X102344291Y-81503063D01*
X102350209Y-81473933D01*
X102352172Y-81439115D01*
X102348679Y-81394338D01*
X102335891Y-81356282D01*
X102312969Y-81328819D01*
X102296435Y-81318265D01*
X102276030Y-81310238D01*
X102249553Y-81304784D01*
X102217777Y-81302889D01*
X102107135Y-81302889D01*
X102107135Y-81576685D01*
X101881760Y-81576685D01*
X101881760Y-81119462D01*
X102244338Y-81119462D01*
X102258391Y-81119607D01*
G37*
G36*
X103432152Y-81119462D02*
G01*
X102669199Y-81119462D01*
X102669199Y-81302889D01*
X102937988Y-81302889D01*
X102937988Y-82030000D01*
X103163363Y-82030000D01*
X103163363Y-81302889D01*
X103432152Y-81302889D01*
X103432152Y-81119462D01*
G37*
G36*
X103561601Y-81119462D02*
G01*
X103561601Y-82030000D01*
X104220996Y-82030000D01*
X104220996Y-81843825D01*
X103786976Y-81843825D01*
X103786976Y-81657102D01*
X104183199Y-81657102D01*
X104183199Y-81475080D01*
X103786976Y-81475080D01*
X103786976Y-81302889D01*
X104222400Y-81302889D01*
X104222400Y-81119462D01*
X103561601Y-81119462D01*
G37*
G36*
X104755581Y-81119536D02*
G01*
X104848216Y-81127879D01*
X104922422Y-81148373D01*
X104953646Y-81162654D01*
X104981407Y-81179498D01*
X105006161Y-81199085D01*
X105027558Y-81221028D01*
X105046507Y-81246416D01*
X105062007Y-81274071D01*
X105075014Y-81306292D01*
X105084298Y-81340754D01*
X105090404Y-81381057D01*
X105092393Y-81423545D01*
X105087950Y-81485171D01*
X105070415Y-81553012D01*
X105040532Y-81610413D01*
X105020960Y-81635559D01*
X104998284Y-81658307D01*
X104972044Y-81678902D01*
X104942611Y-81696852D01*
X105120420Y-82030000D01*
X104854378Y-82030000D01*
X104717175Y-81741671D01*
X104603785Y-81741671D01*
X104603785Y-82030000D01*
X104378410Y-82030000D01*
X104378410Y-81561053D01*
X104603785Y-81561053D01*
X104722793Y-81561053D01*
X104757650Y-81558342D01*
X104797439Y-81545184D01*
X104826176Y-81521254D01*
X104837199Y-81504080D01*
X104845442Y-81483338D01*
X104851056Y-81456503D01*
X104852974Y-81424949D01*
X104851566Y-81396884D01*
X104841351Y-81356897D01*
X104820859Y-81329459D01*
X104804696Y-81318689D01*
X104784498Y-81310702D01*
X104754887Y-81304842D01*
X104718579Y-81302889D01*
X104603785Y-81302889D01*
X104603785Y-81561053D01*
X104378410Y-81561053D01*
X104378410Y-81119462D01*
X104745202Y-81119462D01*
X104755581Y-81119536D01*
G37*
D11*
X93500000Y-89550000D02*
X101000000Y-89550000D01*
X101000000Y-112450000D01*
X93500000Y-112450000D01*
X93500000Y-89550000D01*
D12*
G36*
X94380556Y-108837894D02*
G01*
X94378653Y-108853845D01*
X94373147Y-108867682D01*
X94352419Y-108889422D01*
X94316203Y-108904901D01*
X94259837Y-108912144D01*
X94250375Y-108912266D01*
X94212185Y-108910339D01*
X94175509Y-108904664D01*
X94105853Y-108882374D01*
X94040164Y-108845322D01*
X93992759Y-108806997D01*
X93918571Y-109011673D01*
X93992114Y-109051196D01*
X94071777Y-109077982D01*
X94157614Y-109092481D01*
X94226561Y-109095631D01*
X94282745Y-109093640D01*
X94337218Y-109087518D01*
X94384797Y-109078129D01*
X94429686Y-109064938D01*
X94467249Y-109049695D01*
X94501713Y-109031119D01*
X94529785Y-109011395D01*
X94554656Y-108988768D01*
X94574439Y-108965302D01*
X94590988Y-108939229D01*
X94603476Y-108912008D01*
X94612612Y-108882315D01*
X94618101Y-108850812D01*
X94619975Y-108816828D01*
X94618071Y-108782516D01*
X94612559Y-108751059D01*
X94591687Y-108695617D01*
X94557976Y-108647621D01*
X94510111Y-108604885D01*
X94444759Y-108565615D01*
X94354810Y-108526611D01*
X94327894Y-108516278D01*
X94269094Y-108493037D01*
X94220844Y-108469016D01*
X94202252Y-108455813D01*
X94188192Y-108441334D01*
X94179292Y-108425220D01*
X94176186Y-108407110D01*
X94178082Y-108391968D01*
X94183541Y-108379010D01*
X94204020Y-108359098D01*
X94239919Y-108345705D01*
X94288171Y-108341165D01*
X94357906Y-108348599D01*
X94422287Y-108370295D01*
X94482760Y-108406278D01*
X94519164Y-108436603D01*
X94580774Y-108230584D01*
X94533449Y-108206923D01*
X94488127Y-108188666D01*
X94402826Y-108166460D01*
X94310866Y-108158010D01*
X94288171Y-108157739D01*
X94202086Y-108165317D01*
X94161227Y-108174642D01*
X94122627Y-108187413D01*
X94087001Y-108203268D01*
X94054296Y-108222142D01*
X94025747Y-108243124D01*
X94000588Y-108266607D01*
X93980058Y-108291168D01*
X93963174Y-108317714D01*
X93950760Y-108344652D01*
X93942127Y-108373137D01*
X93936767Y-108421154D01*
X93938671Y-108455694D01*
X93944183Y-108487202D01*
X93964930Y-108542073D01*
X93998277Y-108588942D01*
X94045574Y-108630242D01*
X94110463Y-108668042D01*
X94216604Y-108712093D01*
X94279601Y-108736985D01*
X94331806Y-108763746D01*
X94352043Y-108779001D01*
X94367398Y-108796131D01*
X94377145Y-108815605D01*
X94380556Y-108837894D01*
G37*
G36*
X95081612Y-108170229D02*
G01*
X95185783Y-108181211D01*
X95268992Y-108203526D01*
X95335807Y-108235983D01*
X95364289Y-108256091D01*
X95389652Y-108278747D01*
X95412710Y-108304815D01*
X95432667Y-108333533D01*
X95450739Y-108367188D01*
X95465537Y-108403794D01*
X95478274Y-108447697D01*
X95487375Y-108495096D01*
X95493582Y-108553532D01*
X95495586Y-108616366D01*
X95491634Y-108702095D01*
X95476636Y-108790835D01*
X95451234Y-108865102D01*
X95415828Y-108927092D01*
X95370015Y-108978458D01*
X95312451Y-109020065D01*
X95278555Y-109037231D01*
X95240898Y-109051796D01*
X95198757Y-109063683D01*
X95152381Y-109072485D01*
X95100300Y-109078083D01*
X95043370Y-109080000D01*
X94743806Y-109080000D01*
X94743806Y-108893825D01*
X94969181Y-108893825D01*
X95054605Y-108893825D01*
X95121516Y-108887688D01*
X95171126Y-108870293D01*
X95191023Y-108857309D01*
X95207516Y-108841773D01*
X95222669Y-108820963D01*
X95234223Y-108797197D01*
X95244998Y-108760616D01*
X95251218Y-108719546D01*
X95254762Y-108626135D01*
X95254287Y-108583345D01*
X95247603Y-108500760D01*
X95232939Y-108446707D01*
X95209662Y-108408337D01*
X95193784Y-108392969D01*
X95174627Y-108380053D01*
X95149929Y-108368894D01*
X95120686Y-108360647D01*
X95081324Y-108354835D01*
X95035005Y-108352889D01*
X94969181Y-108352889D01*
X94969181Y-108893825D01*
X94743806Y-108893825D01*
X94743806Y-108169462D01*
X95041966Y-108169462D01*
X95081612Y-108170229D01*
G37*
G36*
X96362770Y-109080000D02*
G01*
X96123412Y-109080000D01*
X96072976Y-108892421D01*
X95811209Y-108892421D01*
X95764986Y-109080000D01*
X95533993Y-109080000D01*
X95647693Y-108717482D01*
X95854623Y-108717482D01*
X96026814Y-108717482D01*
X95937177Y-108385068D01*
X95854623Y-108717482D01*
X95647693Y-108717482D01*
X95819574Y-108169462D01*
X96072976Y-108169462D01*
X96362770Y-109080000D01*
G37*
G36*
X99177713Y-90547297D02*
G01*
X99488512Y-91130000D01*
X99716696Y-91130000D01*
X99716696Y-90219462D01*
X99506708Y-90219462D01*
X99506708Y-90765833D01*
X99211358Y-90219462D01*
X98966321Y-90219462D01*
X98966321Y-91130000D01*
X99179118Y-91130000D01*
X99177713Y-90547297D01*
G37*
G36*
X100484535Y-90887894D02*
G01*
X100441801Y-90914754D01*
X100398988Y-90935969D01*
X100363158Y-90948979D01*
X100325954Y-90957960D01*
X100260564Y-90963670D01*
X100229817Y-90961725D01*
X100202047Y-90955927D01*
X100178678Y-90947056D01*
X100157783Y-90934902D01*
X100123628Y-90901557D01*
X100097428Y-90853824D01*
X100079136Y-90787136D01*
X100070494Y-90694813D01*
X100070177Y-90670396D01*
X100072118Y-90615775D01*
X100077894Y-90567441D01*
X100086401Y-90528870D01*
X100097956Y-90495279D01*
X100111185Y-90468765D01*
X100126887Y-90446278D01*
X100143931Y-90428685D01*
X100163103Y-90414544D01*
X100207232Y-90396473D01*
X100254946Y-90391165D01*
X100292994Y-90393237D01*
X100328667Y-90399926D01*
X100388408Y-90424028D01*
X100456569Y-90469750D01*
X100530757Y-90283393D01*
X100489055Y-90259970D01*
X100447050Y-90241026D01*
X100406351Y-90227001D01*
X100364835Y-90216862D01*
X100278466Y-90207845D01*
X100267525Y-90207739D01*
X100218939Y-90209683D01*
X100172716Y-90215475D01*
X100130219Y-90224719D01*
X100090136Y-90237476D01*
X100053496Y-90253232D01*
X100019322Y-90272220D01*
X99988243Y-90293967D01*
X99959707Y-90318737D01*
X99933968Y-90346276D01*
X99910895Y-90376703D01*
X99872918Y-90446397D01*
X99846380Y-90528508D01*
X99832470Y-90623904D01*
X99830757Y-90674609D01*
X99832711Y-90735363D01*
X99838570Y-90792237D01*
X99847638Y-90842109D01*
X99860154Y-90888423D01*
X99875132Y-90928830D01*
X99893180Y-90965960D01*
X99913256Y-90998278D01*
X99936122Y-91027521D01*
X99960967Y-91052909D01*
X99988434Y-91075321D01*
X100050596Y-91110773D01*
X100123963Y-91134263D01*
X100210512Y-91145082D01*
X100236750Y-91145631D01*
X100288161Y-91143632D01*
X100337422Y-91137456D01*
X100382002Y-91127789D01*
X100426496Y-91114103D01*
X100520729Y-91072721D01*
X100536314Y-91064481D01*
X100484535Y-90887894D01*
G37*
G36*
X94402965Y-111230226D02*
G01*
X94402965Y-111510861D01*
X94358147Y-111513670D01*
X94322158Y-111511668D01*
X94289115Y-111505472D01*
X94262739Y-111496396D01*
X94238770Y-111483707D01*
X94218759Y-111468541D01*
X94200941Y-111449949D01*
X94172437Y-111402598D01*
X94152627Y-111337473D01*
X94143011Y-111248358D01*
X94142541Y-111220396D01*
X94144481Y-111166223D01*
X94150246Y-111118642D01*
X94158703Y-111080987D01*
X94170169Y-111048311D01*
X94183368Y-111022395D01*
X94199030Y-111000382D01*
X94216306Y-110982798D01*
X94235757Y-110968509D01*
X94281690Y-110949063D01*
X94340401Y-110941258D01*
X94348377Y-110941165D01*
X94386057Y-110943245D01*
X94420830Y-110949994D01*
X94477850Y-110973993D01*
X94545786Y-111021154D01*
X94622784Y-110819349D01*
X94564861Y-110794692D01*
X94511527Y-110776995D01*
X94467939Y-110766881D01*
X94423909Y-110760698D01*
X94358147Y-110757739D01*
X94306828Y-110759700D01*
X94257553Y-110765612D01*
X94212721Y-110774956D01*
X94170133Y-110787961D01*
X94131808Y-110803796D01*
X94095859Y-110823021D01*
X94063747Y-110844690D01*
X94034122Y-110869539D01*
X94007862Y-110896749D01*
X93984218Y-110927014D01*
X93963598Y-110959870D01*
X93945780Y-110995745D01*
X93930885Y-111034682D01*
X93919050Y-111076692D01*
X93904983Y-111171254D01*
X93903183Y-111223204D01*
X93905147Y-111285632D01*
X93911077Y-111344034D01*
X93920153Y-111394426D01*
X93932725Y-111441209D01*
X93947637Y-111481512D01*
X93965667Y-111518547D01*
X93985611Y-111550496D01*
X94008406Y-111579417D01*
X94033124Y-111604396D01*
X94060553Y-111626461D01*
X94122850Y-111661318D01*
X94197016Y-111684448D01*
X94285496Y-111695106D01*
X94311985Y-111695631D01*
X94359088Y-111693682D01*
X94405541Y-111687851D01*
X94498142Y-111664473D01*
X94595652Y-111623659D01*
X94624188Y-111608864D01*
X94624188Y-111230226D01*
X94402965Y-111230226D01*
G37*
G36*
X94945368Y-111097297D02*
G01*
X95256167Y-111680000D01*
X95484351Y-111680000D01*
X95484351Y-110769462D01*
X95274363Y-110769462D01*
X95274363Y-111315833D01*
X94979012Y-110769462D01*
X94733975Y-110769462D01*
X94733975Y-111680000D01*
X94946772Y-111680000D01*
X94945368Y-111097297D01*
G37*
G36*
X95920830Y-110770229D02*
G01*
X96025001Y-110781211D01*
X96108210Y-110803526D01*
X96175026Y-110835983D01*
X96203507Y-110856091D01*
X96228870Y-110878747D01*
X96251928Y-110904815D01*
X96271886Y-110933533D01*
X96289958Y-110967188D01*
X96304755Y-111003794D01*
X96317492Y-111047697D01*
X96326593Y-111095096D01*
X96332801Y-111153532D01*
X96334804Y-111216366D01*
X96330852Y-111302095D01*
X96315854Y-111390835D01*
X96290453Y-111465102D01*
X96255046Y-111527092D01*
X96209233Y-111578458D01*
X96151669Y-111620065D01*
X96117773Y-111637231D01*
X96080116Y-111651796D01*
X96037976Y-111663683D01*
X95991600Y-111672485D01*
X95939518Y-111678083D01*
X95882588Y-111680000D01*
X95583025Y-111680000D01*
X95583025Y-111493825D01*
X95808400Y-111493825D01*
X95893824Y-111493825D01*
X95960734Y-111487688D01*
X96010344Y-111470293D01*
X96030241Y-111457309D01*
X96046734Y-111441773D01*
X96061888Y-111420963D01*
X96073441Y-111397197D01*
X96084217Y-111360616D01*
X96090436Y-111319546D01*
X96093981Y-111226135D01*
X96093505Y-111183345D01*
X96086821Y-111100760D01*
X96072157Y-111046707D01*
X96048881Y-111008337D01*
X96033002Y-110992969D01*
X96013845Y-110980053D01*
X95989148Y-110968894D01*
X95959904Y-110960647D01*
X95920543Y-110954835D01*
X95874223Y-110952889D01*
X95808400Y-110952889D01*
X95808400Y-111493825D01*
X95583025Y-111493825D01*
X95583025Y-110769462D01*
X95881184Y-110769462D01*
X95920830Y-110770229D01*
G37*
G36*
X94242393Y-95470229D02*
G01*
X94346564Y-95481211D01*
X94429773Y-95503526D01*
X94496589Y-95535983D01*
X94525070Y-95556091D01*
X94550433Y-95578747D01*
X94573491Y-95604815D01*
X94593449Y-95633533D01*
X94611521Y-95667188D01*
X94626318Y-95703794D01*
X94639055Y-95747697D01*
X94648156Y-95795096D01*
X94654364Y-95853532D01*
X94656367Y-95916366D01*
X94652415Y-96002095D01*
X94637417Y-96090835D01*
X94612016Y-96165102D01*
X94576609Y-96227092D01*
X94530796Y-96278458D01*
X94473232Y-96320065D01*
X94439336Y-96337231D01*
X94401679Y-96351796D01*
X94359539Y-96363683D01*
X94313163Y-96372485D01*
X94261082Y-96378083D01*
X94204152Y-96380000D01*
X93904588Y-96380000D01*
X93904588Y-96193825D01*
X94129963Y-96193825D01*
X94215387Y-96193825D01*
X94282297Y-96187688D01*
X94331907Y-96170293D01*
X94351804Y-96157309D01*
X94368297Y-96141773D01*
X94383451Y-96120963D01*
X94395004Y-96097197D01*
X94405780Y-96060616D01*
X94411999Y-96019546D01*
X94415544Y-95926135D01*
X94415068Y-95883345D01*
X94408384Y-95800760D01*
X94393721Y-95746707D01*
X94370444Y-95708337D01*
X94354565Y-95692969D01*
X94335408Y-95680053D01*
X94310711Y-95668894D01*
X94281467Y-95660647D01*
X94242106Y-95654835D01*
X94195786Y-95652889D01*
X94129963Y-95652889D01*
X94129963Y-96193825D01*
X93904588Y-96193825D01*
X93904588Y-95469462D01*
X94202747Y-95469462D01*
X94242393Y-95470229D01*
G37*
G36*
X95183418Y-95462024D02*
G01*
X95254710Y-95479056D01*
X95314027Y-95508171D01*
X95340145Y-95527532D01*
X95363634Y-95549911D01*
X95385506Y-95576574D01*
X95404610Y-95606451D01*
X95422168Y-95642176D01*
X95436663Y-95681500D01*
X95449151Y-95728759D01*
X95458146Y-95780187D01*
X95464176Y-95842211D01*
X95466154Y-95909160D01*
X95465253Y-95961628D01*
X95455112Y-96076003D01*
X95435038Y-96165459D01*
X95406169Y-96235940D01*
X95368807Y-96291518D01*
X95322193Y-96334847D01*
X95294797Y-96352389D01*
X95264395Y-96367130D01*
X95230095Y-96379168D01*
X95192374Y-96388018D01*
X95149288Y-96393702D01*
X95102172Y-96395631D01*
X95026125Y-96390578D01*
X94955164Y-96373519D01*
X94897304Y-96345275D01*
X94872221Y-96326746D01*
X94849500Y-96305098D01*
X94828601Y-96279501D01*
X94810193Y-96250427D01*
X94793766Y-96216479D01*
X95079762Y-96216479D01*
X95110598Y-96217883D01*
X95148149Y-96213392D01*
X95166394Y-96206589D01*
X95182163Y-96196662D01*
X95196845Y-96182100D01*
X95208961Y-96163677D01*
X95220844Y-96135134D01*
X95229505Y-96100395D01*
X95238393Y-96021611D01*
X95240779Y-95921800D01*
X95240332Y-95874170D01*
X95233757Y-95774460D01*
X95079762Y-96216479D01*
X94793766Y-96216479D01*
X94793392Y-96215707D01*
X94779383Y-96176868D01*
X94767357Y-96130047D01*
X94758592Y-96078135D01*
X94752722Y-96015144D01*
X94750767Y-95945675D01*
X94751176Y-95918991D01*
X94974799Y-95918991D01*
X94976854Y-96024641D01*
X94985973Y-96104188D01*
X95146990Y-95639760D01*
X95104980Y-95634143D01*
X95065444Y-95640681D01*
X95047758Y-95649405D01*
X95032360Y-95661609D01*
X95017307Y-95679788D01*
X95004904Y-95702215D01*
X94992821Y-95735915D01*
X94984166Y-95775574D01*
X94976947Y-95842092D01*
X94974799Y-95918991D01*
X94751176Y-95918991D01*
X94751417Y-95903222D01*
X94761555Y-95786159D01*
X94782256Y-95693917D01*
X94812001Y-95621186D01*
X94850248Y-95563984D01*
X94897584Y-95519582D01*
X94925315Y-95501630D01*
X94955804Y-95486660D01*
X94990261Y-95474398D01*
X95027833Y-95465449D01*
X95070868Y-95459679D01*
X95117559Y-95457739D01*
X95183418Y-95462024D01*
G37*
G36*
X95784586Y-95797297D02*
G01*
X96095385Y-96380000D01*
X96323569Y-96380000D01*
X96323569Y-95469462D01*
X96113581Y-95469462D01*
X96113581Y-96015833D01*
X95818230Y-95469462D01*
X95573194Y-95469462D01*
X95573194Y-96380000D01*
X95785990Y-96380000D01*
X95784586Y-95797297D01*
G37*
G36*
X98474738Y-100420229D02*
G01*
X98578909Y-100431211D01*
X98662118Y-100453526D01*
X98728934Y-100485983D01*
X98757415Y-100506091D01*
X98782778Y-100528747D01*
X98805836Y-100554815D01*
X98825794Y-100583533D01*
X98843866Y-100617188D01*
X98858663Y-100653794D01*
X98871400Y-100697697D01*
X98880501Y-100745096D01*
X98886709Y-100803532D01*
X98888712Y-100866366D01*
X98884760Y-100952095D01*
X98869762Y-101040835D01*
X98844361Y-101115102D01*
X98808954Y-101177092D01*
X98763141Y-101228458D01*
X98705577Y-101270065D01*
X98671681Y-101287231D01*
X98634024Y-101301796D01*
X98591884Y-101313683D01*
X98545508Y-101322485D01*
X98493427Y-101328083D01*
X98436497Y-101330000D01*
X98136933Y-101330000D01*
X98136933Y-101143825D01*
X98362308Y-101143825D01*
X98447732Y-101143825D01*
X98514642Y-101137688D01*
X98564252Y-101120293D01*
X98584149Y-101107309D01*
X98600642Y-101091773D01*
X98615796Y-101070963D01*
X98627349Y-101047197D01*
X98638125Y-101010616D01*
X98644344Y-100969546D01*
X98647889Y-100876135D01*
X98647413Y-100833345D01*
X98640729Y-100750760D01*
X98626066Y-100696707D01*
X98602789Y-100658337D01*
X98586910Y-100642969D01*
X98567753Y-100630053D01*
X98543056Y-100618894D01*
X98513812Y-100610647D01*
X98474451Y-100604835D01*
X98428131Y-100602889D01*
X98362308Y-100602889D01*
X98362308Y-101143825D01*
X98136933Y-101143825D01*
X98136933Y-100419462D01*
X98435092Y-100419462D01*
X98474738Y-100420229D01*
G37*
G36*
X99022313Y-101330000D02*
G01*
X99673342Y-101330000D01*
X99673342Y-101145230D01*
X99453524Y-101145230D01*
X99453524Y-100407739D01*
X99061514Y-100481927D01*
X99061514Y-100648440D01*
X99233705Y-100626031D01*
X99233705Y-101145230D01*
X99022313Y-101145230D01*
X99022313Y-101330000D01*
G37*
G36*
X100226989Y-100419607D02*
G01*
X100316960Y-100428580D01*
X100389898Y-100449893D01*
X100420925Y-100464738D01*
X100448541Y-100482175D01*
X100473375Y-100502537D01*
X100494848Y-100525271D01*
X100513958Y-100551607D01*
X100529582Y-100580182D01*
X100542689Y-100613337D01*
X100552032Y-100648615D01*
X100558138Y-100689401D01*
X100560127Y-100732093D01*
X100558602Y-100768878D01*
X100545192Y-100841808D01*
X100519081Y-100904374D01*
X100480951Y-100957049D01*
X100457316Y-100979779D01*
X100430599Y-100999999D01*
X100400414Y-101017779D01*
X100367070Y-101032722D01*
X100329671Y-101044941D01*
X100288961Y-101053907D01*
X100243604Y-101059588D01*
X100194740Y-101061516D01*
X100075732Y-101061516D01*
X100075732Y-101330000D01*
X99850357Y-101330000D01*
X99850357Y-100876685D01*
X100075732Y-100876685D01*
X100190527Y-100876685D01*
X100223698Y-100874629D01*
X100264873Y-100862829D01*
X100293532Y-100840544D01*
X100304681Y-100823651D01*
X100312888Y-100803063D01*
X100318807Y-100773933D01*
X100320769Y-100739115D01*
X100317277Y-100694338D01*
X100304489Y-100656282D01*
X100281566Y-100628819D01*
X100265032Y-100618265D01*
X100244628Y-100610238D01*
X100218151Y-100604784D01*
X100186375Y-100602889D01*
X100075732Y-100602889D01*
X100075732Y-100876685D01*
X99850357Y-100876685D01*
X99850357Y-100419462D01*
X100212936Y-100419462D01*
X100226989Y-100419607D01*
G37*
G36*
X94316207Y-90369607D02*
G01*
X94406179Y-90378580D01*
X94479116Y-90399893D01*
X94510144Y-90414738D01*
X94537759Y-90432175D01*
X94562593Y-90452537D01*
X94584066Y-90475271D01*
X94603176Y-90501607D01*
X94618800Y-90530182D01*
X94631907Y-90563337D01*
X94641251Y-90598615D01*
X94647356Y-90639401D01*
X94649345Y-90682093D01*
X94647820Y-90718878D01*
X94634410Y-90791808D01*
X94608299Y-90854374D01*
X94570169Y-90907049D01*
X94546535Y-90929779D01*
X94519817Y-90949999D01*
X94489632Y-90967779D01*
X94456289Y-90982722D01*
X94418889Y-90994941D01*
X94378179Y-91003907D01*
X94332822Y-91009588D01*
X94283958Y-91011516D01*
X94164951Y-91011516D01*
X94164951Y-91280000D01*
X93939576Y-91280000D01*
X93939576Y-90826685D01*
X94164951Y-90826685D01*
X94279745Y-90826685D01*
X94312916Y-90824629D01*
X94354091Y-90812829D01*
X94382750Y-90790544D01*
X94393899Y-90773651D01*
X94402106Y-90753063D01*
X94408025Y-90723933D01*
X94409987Y-90689115D01*
X94406495Y-90644338D01*
X94393707Y-90606282D01*
X94370784Y-90578819D01*
X94354250Y-90568265D01*
X94333846Y-90560238D01*
X94307369Y-90554784D01*
X94275593Y-90552889D01*
X94164951Y-90552889D01*
X94164951Y-90826685D01*
X93939576Y-90826685D01*
X93939576Y-90369462D01*
X94302154Y-90369462D01*
X94316207Y-90369607D01*
G37*
G36*
X95081612Y-90370229D02*
G01*
X95185783Y-90381211D01*
X95268992Y-90403526D01*
X95335807Y-90435983D01*
X95364289Y-90456091D01*
X95389652Y-90478747D01*
X95412710Y-90504815D01*
X95432667Y-90533533D01*
X95450739Y-90567188D01*
X95465537Y-90603794D01*
X95478274Y-90647697D01*
X95487375Y-90695096D01*
X95493582Y-90753532D01*
X95495586Y-90816366D01*
X95491634Y-90902095D01*
X95476636Y-90990835D01*
X95451234Y-91065102D01*
X95415828Y-91127092D01*
X95370015Y-91178458D01*
X95312451Y-91220065D01*
X95278555Y-91237231D01*
X95240898Y-91251796D01*
X95198757Y-91263683D01*
X95152381Y-91272485D01*
X95100300Y-91278083D01*
X95043370Y-91280000D01*
X94743806Y-91280000D01*
X94743806Y-91093825D01*
X94969181Y-91093825D01*
X95054605Y-91093825D01*
X95121516Y-91087688D01*
X95171126Y-91070293D01*
X95191023Y-91057309D01*
X95207516Y-91041773D01*
X95222669Y-91020963D01*
X95234223Y-90997197D01*
X95244998Y-90960616D01*
X95251218Y-90919546D01*
X95254762Y-90826135D01*
X95254287Y-90783345D01*
X95247603Y-90700760D01*
X95232939Y-90646707D01*
X95209662Y-90608337D01*
X95193784Y-90592969D01*
X95174627Y-90580053D01*
X95149929Y-90568894D01*
X95120686Y-90560647D01*
X95081324Y-90554835D01*
X95035005Y-90552889D01*
X94969181Y-90552889D01*
X94969181Y-91093825D01*
X94743806Y-91093825D01*
X94743806Y-90369462D01*
X95041966Y-90369462D01*
X95081612Y-90370229D01*
G37*
G36*
X99177713Y-105747297D02*
G01*
X99488512Y-106330000D01*
X99716696Y-106330000D01*
X99716696Y-105419462D01*
X99506708Y-105419462D01*
X99506708Y-105965833D01*
X99211358Y-105419462D01*
X98966321Y-105419462D01*
X98966321Y-106330000D01*
X99179118Y-106330000D01*
X99177713Y-105747297D01*
G37*
G36*
X100484535Y-106087894D02*
G01*
X100441801Y-106114754D01*
X100398988Y-106135969D01*
X100363158Y-106148979D01*
X100325954Y-106157960D01*
X100260564Y-106163670D01*
X100229817Y-106161725D01*
X100202047Y-106155927D01*
X100178678Y-106147056D01*
X100157783Y-106134902D01*
X100123628Y-106101557D01*
X100097428Y-106053824D01*
X100079136Y-105987136D01*
X100070494Y-105894813D01*
X100070177Y-105870396D01*
X100072118Y-105815775D01*
X100077894Y-105767441D01*
X100086401Y-105728870D01*
X100097956Y-105695279D01*
X100111185Y-105668765D01*
X100126887Y-105646278D01*
X100143931Y-105628685D01*
X100163103Y-105614544D01*
X100207232Y-105596473D01*
X100254946Y-105591165D01*
X100292994Y-105593237D01*
X100328667Y-105599926D01*
X100388408Y-105624028D01*
X100456569Y-105669750D01*
X100530757Y-105483393D01*
X100489055Y-105459970D01*
X100447050Y-105441026D01*
X100406351Y-105427001D01*
X100364835Y-105416862D01*
X100278466Y-105407845D01*
X100267525Y-105407739D01*
X100218939Y-105409683D01*
X100172716Y-105415475D01*
X100130219Y-105424719D01*
X100090136Y-105437476D01*
X100053496Y-105453232D01*
X100019322Y-105472220D01*
X99988243Y-105493967D01*
X99959707Y-105518737D01*
X99933968Y-105546276D01*
X99910895Y-105576703D01*
X99872918Y-105646397D01*
X99846380Y-105728508D01*
X99832470Y-105823904D01*
X99830757Y-105874609D01*
X99832711Y-105935363D01*
X99838570Y-105992237D01*
X99847638Y-106042109D01*
X99860154Y-106088423D01*
X99875132Y-106128830D01*
X99893180Y-106165960D01*
X99913256Y-106198278D01*
X99936122Y-106227521D01*
X99960967Y-106252909D01*
X99988434Y-106275321D01*
X100050596Y-106310773D01*
X100123963Y-106334263D01*
X100210512Y-106345082D01*
X100236750Y-106345631D01*
X100288161Y-106343632D01*
X100337422Y-106337456D01*
X100382002Y-106327789D01*
X100426496Y-106314103D01*
X100520729Y-106272721D01*
X100536314Y-106264481D01*
X100484535Y-106087894D01*
G37*
G36*
X98512901Y-108787894D02*
G01*
X98510998Y-108803845D01*
X98505492Y-108817682D01*
X98484764Y-108839422D01*
X98448548Y-108854901D01*
X98392182Y-108862144D01*
X98382720Y-108862266D01*
X98344530Y-108860339D01*
X98307854Y-108854664D01*
X98238198Y-108832374D01*
X98172509Y-108795322D01*
X98125104Y-108756997D01*
X98050916Y-108961673D01*
X98124459Y-109001196D01*
X98204122Y-109027982D01*
X98289959Y-109042481D01*
X98358906Y-109045631D01*
X98415090Y-109043640D01*
X98469563Y-109037518D01*
X98517142Y-109028129D01*
X98562031Y-109014938D01*
X98599594Y-108999695D01*
X98634058Y-108981119D01*
X98662130Y-108961395D01*
X98687001Y-108938768D01*
X98706784Y-108915302D01*
X98723333Y-108889229D01*
X98735821Y-108862008D01*
X98744957Y-108832315D01*
X98750446Y-108800812D01*
X98752320Y-108766828D01*
X98750416Y-108732516D01*
X98744904Y-108701059D01*
X98724032Y-108645617D01*
X98690321Y-108597621D01*
X98642456Y-108554885D01*
X98577104Y-108515615D01*
X98487155Y-108476611D01*
X98460239Y-108466278D01*
X98401439Y-108443037D01*
X98353189Y-108419016D01*
X98334597Y-108405813D01*
X98320537Y-108391334D01*
X98311637Y-108375220D01*
X98308531Y-108357110D01*
X98310427Y-108341968D01*
X98315886Y-108329010D01*
X98336365Y-108309098D01*
X98372264Y-108295705D01*
X98420516Y-108291165D01*
X98490251Y-108298599D01*
X98554632Y-108320295D01*
X98615105Y-108356278D01*
X98651509Y-108386603D01*
X98713119Y-108180584D01*
X98665794Y-108156923D01*
X98620472Y-108138666D01*
X98535171Y-108116460D01*
X98443211Y-108108010D01*
X98420516Y-108107739D01*
X98334431Y-108115317D01*
X98293572Y-108124642D01*
X98254972Y-108137413D01*
X98219346Y-108153268D01*
X98186641Y-108172142D01*
X98158092Y-108193124D01*
X98132933Y-108216607D01*
X98112403Y-108241168D01*
X98095519Y-108267714D01*
X98083105Y-108294652D01*
X98074472Y-108323137D01*
X98069112Y-108371154D01*
X98071016Y-108405694D01*
X98076528Y-108437202D01*
X98097275Y-108492073D01*
X98130622Y-108538942D01*
X98177919Y-108580242D01*
X98242808Y-108618042D01*
X98348949Y-108662093D01*
X98411946Y-108686985D01*
X98464151Y-108713746D01*
X98484388Y-108729001D01*
X98499743Y-108746131D01*
X98509490Y-108765605D01*
X98512901Y-108787894D01*
G37*
G36*
X99545316Y-108787894D02*
G01*
X99502582Y-108814754D01*
X99459769Y-108835969D01*
X99423939Y-108848979D01*
X99386735Y-108857960D01*
X99321345Y-108863670D01*
X99290598Y-108861725D01*
X99262828Y-108855927D01*
X99239459Y-108847056D01*
X99218564Y-108834902D01*
X99184409Y-108801557D01*
X99158209Y-108753824D01*
X99139917Y-108687136D01*
X99131275Y-108594813D01*
X99130958Y-108570396D01*
X99132899Y-108515775D01*
X99138675Y-108467441D01*
X99147182Y-108428870D01*
X99158737Y-108395279D01*
X99171966Y-108368765D01*
X99187668Y-108346278D01*
X99204712Y-108328685D01*
X99223884Y-108314544D01*
X99268013Y-108296473D01*
X99315727Y-108291165D01*
X99353775Y-108293237D01*
X99389448Y-108299926D01*
X99449189Y-108324028D01*
X99517350Y-108369750D01*
X99591538Y-108183393D01*
X99549836Y-108159970D01*
X99507831Y-108141026D01*
X99467132Y-108127001D01*
X99425616Y-108116862D01*
X99339247Y-108107845D01*
X99328306Y-108107739D01*
X99279720Y-108109683D01*
X99233497Y-108115475D01*
X99191000Y-108124719D01*
X99150917Y-108137476D01*
X99114277Y-108153232D01*
X99080103Y-108172220D01*
X99049024Y-108193967D01*
X99020488Y-108218737D01*
X98994749Y-108246276D01*
X98971676Y-108276703D01*
X98933699Y-108346397D01*
X98907161Y-108428508D01*
X98893251Y-108523904D01*
X98891538Y-108574609D01*
X98893492Y-108635363D01*
X98899351Y-108692237D01*
X98908419Y-108742109D01*
X98920935Y-108788423D01*
X98935913Y-108828830D01*
X98953961Y-108865960D01*
X98974037Y-108898278D01*
X98996903Y-108927521D01*
X99021748Y-108952909D01*
X99049215Y-108975321D01*
X99111377Y-109010773D01*
X99184744Y-109034263D01*
X99271293Y-109045082D01*
X99297531Y-109045631D01*
X99348942Y-109043632D01*
X99398203Y-109037456D01*
X99442783Y-109027789D01*
X99487277Y-109014103D01*
X99581510Y-108972721D01*
X99597095Y-108964481D01*
X99545316Y-108787894D01*
G37*
G36*
X99782536Y-108119462D02*
G01*
X99782536Y-109030000D01*
X100426544Y-109030000D01*
X100426544Y-108843825D01*
X100007973Y-108843825D01*
X100007973Y-108119462D01*
X99782536Y-108119462D01*
G37*
G36*
X94106149Y-93197297D02*
G01*
X94416948Y-93780000D01*
X94645132Y-93780000D01*
X94645132Y-92869462D01*
X94435144Y-92869462D01*
X94435144Y-93415833D01*
X94139794Y-92869462D01*
X93894757Y-92869462D01*
X93894757Y-93780000D01*
X94107554Y-93780000D01*
X94106149Y-93197297D01*
G37*
G36*
X95412971Y-93537894D02*
G01*
X95370237Y-93564754D01*
X95327424Y-93585969D01*
X95291594Y-93598979D01*
X95254390Y-93607960D01*
X95189000Y-93613670D01*
X95158253Y-93611725D01*
X95130483Y-93605927D01*
X95107114Y-93597056D01*
X95086219Y-93584902D01*
X95052064Y-93551557D01*
X95025864Y-93503824D01*
X95007572Y-93437136D01*
X94998930Y-93344813D01*
X94998613Y-93320396D01*
X95000554Y-93265775D01*
X95006330Y-93217441D01*
X95014837Y-93178870D01*
X95026392Y-93145279D01*
X95039621Y-93118765D01*
X95055323Y-93096278D01*
X95072367Y-93078685D01*
X95091539Y-93064544D01*
X95135668Y-93046473D01*
X95183382Y-93041165D01*
X95221430Y-93043237D01*
X95257103Y-93049926D01*
X95316844Y-93074028D01*
X95385005Y-93119750D01*
X95459193Y-92933393D01*
X95417491Y-92909970D01*
X95375486Y-92891026D01*
X95334787Y-92877001D01*
X95293271Y-92866862D01*
X95206902Y-92857845D01*
X95195961Y-92857739D01*
X95147375Y-92859683D01*
X95101152Y-92865475D01*
X95058655Y-92874719D01*
X95018572Y-92887476D01*
X94981932Y-92903232D01*
X94947758Y-92922220D01*
X94916679Y-92943967D01*
X94888143Y-92968737D01*
X94862404Y-92996276D01*
X94839331Y-93026703D01*
X94801354Y-93096397D01*
X94774816Y-93178508D01*
X94760906Y-93273904D01*
X94759193Y-93324609D01*
X94761147Y-93385363D01*
X94767006Y-93442237D01*
X94776074Y-93492109D01*
X94788590Y-93538423D01*
X94803568Y-93578830D01*
X94821616Y-93615960D01*
X94841692Y-93648278D01*
X94864558Y-93677521D01*
X94889403Y-93702909D01*
X94916870Y-93725321D01*
X94979032Y-93760773D01*
X95052399Y-93784263D01*
X95138948Y-93795082D01*
X95165186Y-93795631D01*
X95216597Y-93793632D01*
X95265858Y-93787456D01*
X95310438Y-93777789D01*
X95354932Y-93764103D01*
X95449165Y-93722721D01*
X95464750Y-93714481D01*
X95412971Y-93537894D01*
G37*
G36*
X99177713Y-93047297D02*
G01*
X99488512Y-93630000D01*
X99716696Y-93630000D01*
X99716696Y-92719462D01*
X99506708Y-92719462D01*
X99506708Y-93265833D01*
X99211358Y-92719462D01*
X98966321Y-92719462D01*
X98966321Y-93630000D01*
X99179118Y-93630000D01*
X99177713Y-93047297D01*
G37*
G36*
X100484535Y-93387894D02*
G01*
X100441801Y-93414754D01*
X100398988Y-93435969D01*
X100363158Y-93448979D01*
X100325954Y-93457960D01*
X100260564Y-93463670D01*
X100229817Y-93461725D01*
X100202047Y-93455927D01*
X100178678Y-93447056D01*
X100157783Y-93434902D01*
X100123628Y-93401557D01*
X100097428Y-93353824D01*
X100079136Y-93287136D01*
X100070494Y-93194813D01*
X100070177Y-93170396D01*
X100072118Y-93115775D01*
X100077894Y-93067441D01*
X100086401Y-93028870D01*
X100097956Y-92995279D01*
X100111185Y-92968765D01*
X100126887Y-92946278D01*
X100143931Y-92928685D01*
X100163103Y-92914544D01*
X100207232Y-92896473D01*
X100254946Y-92891165D01*
X100292994Y-92893237D01*
X100328667Y-92899926D01*
X100388408Y-92924028D01*
X100456569Y-92969750D01*
X100530757Y-92783393D01*
X100489055Y-92759970D01*
X100447050Y-92741026D01*
X100406351Y-92727001D01*
X100364835Y-92716862D01*
X100278466Y-92707845D01*
X100267525Y-92707739D01*
X100218939Y-92709683D01*
X100172716Y-92715475D01*
X100130219Y-92724719D01*
X100090136Y-92737476D01*
X100053496Y-92753232D01*
X100019322Y-92772220D01*
X99988243Y-92793967D01*
X99959707Y-92818737D01*
X99933968Y-92846276D01*
X99910895Y-92876703D01*
X99872918Y-92946397D01*
X99846380Y-93028508D01*
X99832470Y-93123904D01*
X99830757Y-93174609D01*
X99832711Y-93235363D01*
X99838570Y-93292237D01*
X99847638Y-93342109D01*
X99860154Y-93388423D01*
X99875132Y-93428830D01*
X99893180Y-93465960D01*
X99913256Y-93498278D01*
X99936122Y-93527521D01*
X99960967Y-93552909D01*
X99988434Y-93575321D01*
X100050596Y-93610773D01*
X100123963Y-93634263D01*
X100210512Y-93645082D01*
X100236750Y-93645631D01*
X100288161Y-93643632D01*
X100337422Y-93637456D01*
X100382002Y-93627789D01*
X100426496Y-93614103D01*
X100520729Y-93572721D01*
X100536314Y-93564481D01*
X100484535Y-93387894D01*
G37*
G36*
X94242393Y-100470229D02*
G01*
X94346564Y-100481211D01*
X94429773Y-100503526D01*
X94496589Y-100535983D01*
X94525070Y-100556091D01*
X94550433Y-100578747D01*
X94573491Y-100604815D01*
X94593449Y-100633533D01*
X94611521Y-100667188D01*
X94626318Y-100703794D01*
X94639055Y-100747697D01*
X94648156Y-100795096D01*
X94654364Y-100853532D01*
X94656367Y-100916366D01*
X94652415Y-101002095D01*
X94637417Y-101090835D01*
X94612016Y-101165102D01*
X94576609Y-101227092D01*
X94530796Y-101278458D01*
X94473232Y-101320065D01*
X94439336Y-101337231D01*
X94401679Y-101351796D01*
X94359539Y-101363683D01*
X94313163Y-101372485D01*
X94261082Y-101378083D01*
X94204152Y-101380000D01*
X93904588Y-101380000D01*
X93904588Y-101193825D01*
X94129963Y-101193825D01*
X94215387Y-101193825D01*
X94282297Y-101187688D01*
X94331907Y-101170293D01*
X94351804Y-101157309D01*
X94368297Y-101141773D01*
X94383451Y-101120963D01*
X94395004Y-101097197D01*
X94405780Y-101060616D01*
X94411999Y-101019546D01*
X94415544Y-100926135D01*
X94415068Y-100883345D01*
X94408384Y-100800760D01*
X94393721Y-100746707D01*
X94370444Y-100708337D01*
X94354565Y-100692969D01*
X94335408Y-100680053D01*
X94310711Y-100668894D01*
X94281467Y-100660647D01*
X94242106Y-100654835D01*
X94195786Y-100652889D01*
X94129963Y-100652889D01*
X94129963Y-101193825D01*
X93904588Y-101193825D01*
X93904588Y-100469462D01*
X94202747Y-100469462D01*
X94242393Y-100470229D01*
G37*
G36*
X94789968Y-101380000D02*
G01*
X95440997Y-101380000D01*
X95440997Y-101195230D01*
X95221179Y-101195230D01*
X95221179Y-100457739D01*
X94829169Y-100531927D01*
X94829169Y-100698440D01*
X95001360Y-100676031D01*
X95001360Y-101195230D01*
X94789968Y-101195230D01*
X94789968Y-101380000D01*
G37*
G36*
X95784586Y-100797297D02*
G01*
X96095385Y-101380000D01*
X96323569Y-101380000D01*
X96323569Y-100469462D01*
X96113581Y-100469462D01*
X96113581Y-101015833D01*
X95818230Y-100469462D01*
X95573194Y-100469462D01*
X95573194Y-101380000D01*
X95785990Y-101380000D01*
X95784586Y-100797297D01*
G37*
G36*
X98474738Y-95420229D02*
G01*
X98578909Y-95431211D01*
X98662118Y-95453526D01*
X98728934Y-95485983D01*
X98757415Y-95506091D01*
X98782778Y-95528747D01*
X98805836Y-95554815D01*
X98825794Y-95583533D01*
X98843866Y-95617188D01*
X98858663Y-95653794D01*
X98871400Y-95697697D01*
X98880501Y-95745096D01*
X98886709Y-95803532D01*
X98888712Y-95866366D01*
X98884760Y-95952095D01*
X98869762Y-96040835D01*
X98844361Y-96115102D01*
X98808954Y-96177092D01*
X98763141Y-96228458D01*
X98705577Y-96270065D01*
X98671681Y-96287231D01*
X98634024Y-96301796D01*
X98591884Y-96313683D01*
X98545508Y-96322485D01*
X98493427Y-96328083D01*
X98436497Y-96330000D01*
X98136933Y-96330000D01*
X98136933Y-96143825D01*
X98362308Y-96143825D01*
X98447732Y-96143825D01*
X98514642Y-96137688D01*
X98564252Y-96120293D01*
X98584149Y-96107309D01*
X98600642Y-96091773D01*
X98615796Y-96070963D01*
X98627349Y-96047197D01*
X98638125Y-96010616D01*
X98644344Y-95969546D01*
X98647889Y-95876135D01*
X98647413Y-95833345D01*
X98640729Y-95750760D01*
X98626066Y-95696707D01*
X98602789Y-95658337D01*
X98586910Y-95642969D01*
X98567753Y-95630053D01*
X98543056Y-95618894D01*
X98513812Y-95610647D01*
X98474451Y-95604835D01*
X98428131Y-95602889D01*
X98362308Y-95602889D01*
X98362308Y-96143825D01*
X98136933Y-96143825D01*
X98136933Y-95419462D01*
X98435092Y-95419462D01*
X98474738Y-95420229D01*
G37*
G36*
X99415763Y-95412024D02*
G01*
X99487055Y-95429056D01*
X99546372Y-95458171D01*
X99572490Y-95477532D01*
X99595979Y-95499911D01*
X99617851Y-95526574D01*
X99636955Y-95556451D01*
X99654513Y-95592176D01*
X99669008Y-95631500D01*
X99681496Y-95678759D01*
X99690491Y-95730187D01*
X99696521Y-95792211D01*
X99698499Y-95859160D01*
X99697598Y-95911628D01*
X99687457Y-96026003D01*
X99667383Y-96115459D01*
X99638514Y-96185940D01*
X99601152Y-96241518D01*
X99554538Y-96284847D01*
X99527142Y-96302389D01*
X99496740Y-96317130D01*
X99462440Y-96329168D01*
X99424719Y-96338018D01*
X99381633Y-96343702D01*
X99334517Y-96345631D01*
X99258470Y-96340578D01*
X99187509Y-96323519D01*
X99129649Y-96295275D01*
X99104566Y-96276746D01*
X99081845Y-96255098D01*
X99060946Y-96229501D01*
X99042538Y-96200427D01*
X99026111Y-96166479D01*
X99312107Y-96166479D01*
X99342943Y-96167883D01*
X99380494Y-96163392D01*
X99398739Y-96156589D01*
X99414508Y-96146662D01*
X99429190Y-96132100D01*
X99441306Y-96113677D01*
X99453189Y-96085134D01*
X99461850Y-96050395D01*
X99470738Y-95971611D01*
X99473124Y-95871800D01*
X99472677Y-95824170D01*
X99466102Y-95724460D01*
X99312107Y-96166479D01*
X99026111Y-96166479D01*
X99025737Y-96165707D01*
X99011728Y-96126868D01*
X98999702Y-96080047D01*
X98990937Y-96028135D01*
X98985067Y-95965144D01*
X98983112Y-95895675D01*
X98983521Y-95868991D01*
X99207144Y-95868991D01*
X99209199Y-95974641D01*
X99218318Y-96054188D01*
X99379335Y-95589760D01*
X99337325Y-95584143D01*
X99297789Y-95590681D01*
X99280103Y-95599405D01*
X99264705Y-95611609D01*
X99249652Y-95629788D01*
X99237249Y-95652215D01*
X99225166Y-95685915D01*
X99216511Y-95725574D01*
X99209292Y-95792092D01*
X99207144Y-95868991D01*
X98983521Y-95868991D01*
X98983762Y-95853222D01*
X98993900Y-95736159D01*
X99014601Y-95643917D01*
X99044346Y-95571186D01*
X99082593Y-95513984D01*
X99129929Y-95469582D01*
X99157660Y-95451630D01*
X99188149Y-95436660D01*
X99222606Y-95424398D01*
X99260178Y-95415449D01*
X99303213Y-95409679D01*
X99349904Y-95407739D01*
X99415763Y-95412024D01*
G37*
G36*
X100226989Y-95419607D02*
G01*
X100316960Y-95428580D01*
X100389898Y-95449893D01*
X100420925Y-95464738D01*
X100448541Y-95482175D01*
X100473375Y-95502537D01*
X100494848Y-95525271D01*
X100513958Y-95551607D01*
X100529582Y-95580182D01*
X100542689Y-95613337D01*
X100552032Y-95648615D01*
X100558138Y-95689401D01*
X100560127Y-95732093D01*
X100558602Y-95768878D01*
X100545192Y-95841808D01*
X100519081Y-95904374D01*
X100480951Y-95957049D01*
X100457316Y-95979779D01*
X100430599Y-95999999D01*
X100400414Y-96017779D01*
X100367070Y-96032722D01*
X100329671Y-96044941D01*
X100288961Y-96053907D01*
X100243604Y-96059588D01*
X100194740Y-96061516D01*
X100075732Y-96061516D01*
X100075732Y-96330000D01*
X99850357Y-96330000D01*
X99850357Y-95876685D01*
X100075732Y-95876685D01*
X100190527Y-95876685D01*
X100223698Y-95874629D01*
X100264873Y-95862829D01*
X100293532Y-95840544D01*
X100304681Y-95823651D01*
X100312888Y-95803063D01*
X100318807Y-95773933D01*
X100320769Y-95739115D01*
X100317277Y-95694338D01*
X100304489Y-95656282D01*
X100281566Y-95628819D01*
X100265032Y-95618265D01*
X100244628Y-95610238D01*
X100218151Y-95604784D01*
X100186375Y-95602889D01*
X100075732Y-95602889D01*
X100075732Y-95876685D01*
X99850357Y-95876685D01*
X99850357Y-95419462D01*
X100212936Y-95419462D01*
X100226989Y-95419607D01*
G37*
G36*
X94106149Y-103397297D02*
G01*
X94416948Y-103980000D01*
X94645132Y-103980000D01*
X94645132Y-103069462D01*
X94435144Y-103069462D01*
X94435144Y-103615833D01*
X94139794Y-103069462D01*
X93894757Y-103069462D01*
X93894757Y-103980000D01*
X94107554Y-103980000D01*
X94106149Y-103397297D01*
G37*
G36*
X95412971Y-103737894D02*
G01*
X95370237Y-103764754D01*
X95327424Y-103785969D01*
X95291594Y-103798979D01*
X95254390Y-103807960D01*
X95189000Y-103813670D01*
X95158253Y-103811725D01*
X95130483Y-103805927D01*
X95107114Y-103797056D01*
X95086219Y-103784902D01*
X95052064Y-103751557D01*
X95025864Y-103703824D01*
X95007572Y-103637136D01*
X94998930Y-103544813D01*
X94998613Y-103520396D01*
X95000554Y-103465775D01*
X95006330Y-103417441D01*
X95014837Y-103378870D01*
X95026392Y-103345279D01*
X95039621Y-103318765D01*
X95055323Y-103296278D01*
X95072367Y-103278685D01*
X95091539Y-103264544D01*
X95135668Y-103246473D01*
X95183382Y-103241165D01*
X95221430Y-103243237D01*
X95257103Y-103249926D01*
X95316844Y-103274028D01*
X95385005Y-103319750D01*
X95459193Y-103133393D01*
X95417491Y-103109970D01*
X95375486Y-103091026D01*
X95334787Y-103077001D01*
X95293271Y-103066862D01*
X95206902Y-103057845D01*
X95195961Y-103057739D01*
X95147375Y-103059683D01*
X95101152Y-103065475D01*
X95058655Y-103074719D01*
X95018572Y-103087476D01*
X94981932Y-103103232D01*
X94947758Y-103122220D01*
X94916679Y-103143967D01*
X94888143Y-103168737D01*
X94862404Y-103196276D01*
X94839331Y-103226703D01*
X94801354Y-103296397D01*
X94774816Y-103378508D01*
X94760906Y-103473904D01*
X94759193Y-103524609D01*
X94761147Y-103585363D01*
X94767006Y-103642237D01*
X94776074Y-103692109D01*
X94788590Y-103738423D01*
X94803568Y-103778830D01*
X94821616Y-103815960D01*
X94841692Y-103848278D01*
X94864558Y-103877521D01*
X94889403Y-103902909D01*
X94916870Y-103925321D01*
X94979032Y-103960773D01*
X95052399Y-103984263D01*
X95138948Y-103995082D01*
X95165186Y-103995631D01*
X95216597Y-103993632D01*
X95265858Y-103987456D01*
X95310438Y-103977789D01*
X95354932Y-103964103D01*
X95449165Y-103922721D01*
X95464750Y-103914481D01*
X95412971Y-103737894D01*
G37*
G36*
X94106149Y-105897297D02*
G01*
X94416948Y-106480000D01*
X94645132Y-106480000D01*
X94645132Y-105569462D01*
X94435144Y-105569462D01*
X94435144Y-106115833D01*
X94139794Y-105569462D01*
X93894757Y-105569462D01*
X93894757Y-106480000D01*
X94107554Y-106480000D01*
X94106149Y-105897297D01*
G37*
G36*
X95412971Y-106237894D02*
G01*
X95370237Y-106264754D01*
X95327424Y-106285969D01*
X95291594Y-106298979D01*
X95254390Y-106307960D01*
X95189000Y-106313670D01*
X95158253Y-106311725D01*
X95130483Y-106305927D01*
X95107114Y-106297056D01*
X95086219Y-106284902D01*
X95052064Y-106251557D01*
X95025864Y-106203824D01*
X95007572Y-106137136D01*
X94998930Y-106044813D01*
X94998613Y-106020396D01*
X95000554Y-105965775D01*
X95006330Y-105917441D01*
X95014837Y-105878870D01*
X95026392Y-105845279D01*
X95039621Y-105818765D01*
X95055323Y-105796278D01*
X95072367Y-105778685D01*
X95091539Y-105764544D01*
X95135668Y-105746473D01*
X95183382Y-105741165D01*
X95221430Y-105743237D01*
X95257103Y-105749926D01*
X95316844Y-105774028D01*
X95385005Y-105819750D01*
X95459193Y-105633393D01*
X95417491Y-105609970D01*
X95375486Y-105591026D01*
X95334787Y-105577001D01*
X95293271Y-105566862D01*
X95206902Y-105557845D01*
X95195961Y-105557739D01*
X95147375Y-105559683D01*
X95101152Y-105565475D01*
X95058655Y-105574719D01*
X95018572Y-105587476D01*
X94981932Y-105603232D01*
X94947758Y-105622220D01*
X94916679Y-105643967D01*
X94888143Y-105668737D01*
X94862404Y-105696276D01*
X94839331Y-105726703D01*
X94801354Y-105796397D01*
X94774816Y-105878508D01*
X94760906Y-105973904D01*
X94759193Y-106024609D01*
X94761147Y-106085363D01*
X94767006Y-106142237D01*
X94776074Y-106192109D01*
X94788590Y-106238423D01*
X94803568Y-106278830D01*
X94821616Y-106315960D01*
X94841692Y-106348278D01*
X94864558Y-106377521D01*
X94889403Y-106402909D01*
X94916870Y-106425321D01*
X94979032Y-106460773D01*
X95052399Y-106484263D01*
X95138948Y-106495082D01*
X95165186Y-106495631D01*
X95216597Y-106493632D01*
X95265858Y-106487456D01*
X95310438Y-106477789D01*
X95354932Y-106464103D01*
X95449165Y-106422721D01*
X95464750Y-106414481D01*
X95412971Y-106237894D01*
G37*
G36*
X98792114Y-110939036D02*
G01*
X98790186Y-110909096D01*
X98784505Y-110880502D01*
X98762373Y-110827873D01*
X98726567Y-110782528D01*
X98677858Y-110746179D01*
X98648881Y-110731967D01*
X98617215Y-110720830D01*
X98582775Y-110712930D01*
X98545962Y-110708572D01*
X98520516Y-110707739D01*
X98434267Y-110714774D01*
X98355547Y-110734852D01*
X98285949Y-110765908D01*
X98230387Y-110802896D01*
X98206908Y-110823998D01*
X98302102Y-110967185D01*
X98332966Y-110937511D01*
X98369110Y-110911940D01*
X98395713Y-110899054D01*
X98425111Y-110890050D01*
X98467332Y-110885547D01*
X98493658Y-110887570D01*
X98517612Y-110893915D01*
X98534843Y-110902746D01*
X98548994Y-110915066D01*
X98558213Y-110928658D01*
X98564239Y-110945165D01*
X98566678Y-110967185D01*
X98559158Y-110998534D01*
X98535616Y-111029662D01*
X98492879Y-111059732D01*
X98429113Y-111084928D01*
X98389914Y-111093990D01*
X98347653Y-111099670D01*
X98330129Y-111100908D01*
X98330129Y-111235303D01*
X98385236Y-111237787D01*
X98436366Y-111244279D01*
X98477714Y-111253532D01*
X98514399Y-111266150D01*
X98541716Y-111279786D01*
X98564591Y-111296043D01*
X98580447Y-111312266D01*
X98592343Y-111330531D01*
X98599471Y-111348926D01*
X98602865Y-111369066D01*
X98603131Y-111376842D01*
X98601231Y-111397034D01*
X98595746Y-111414436D01*
X98575879Y-111440716D01*
X98543943Y-111457897D01*
X98498072Y-111465033D01*
X98493894Y-111465075D01*
X98460153Y-111463192D01*
X98429540Y-111457828D01*
X98374009Y-111437337D01*
X98320334Y-111402739D01*
X98282502Y-111371224D01*
X98177538Y-111544881D01*
X98208167Y-111567366D01*
X98248865Y-111590883D01*
X98289848Y-111609309D01*
X98337312Y-111625330D01*
X98382715Y-111636021D01*
X98432584Y-111643078D01*
X98486933Y-111645631D01*
X98534834Y-111643729D01*
X98578609Y-111638231D01*
X98618332Y-111629460D01*
X98654180Y-111617722D01*
X98686573Y-111603173D01*
X98715260Y-111586234D01*
X98763027Y-111545360D01*
X98797963Y-111496393D01*
X98819673Y-111440964D01*
X98827102Y-111382398D01*
X98825181Y-111349287D01*
X98819548Y-111318394D01*
X98810458Y-111289881D01*
X98798084Y-111263584D01*
X98763611Y-111217011D01*
X98716004Y-111178467D01*
X98654697Y-111148779D01*
X98617114Y-111137362D01*
X98651730Y-111124559D01*
X98683391Y-111108666D01*
X98710898Y-111090512D01*
X98734961Y-111069821D01*
X98754335Y-111047973D01*
X98770018Y-111024150D01*
X98781207Y-110999912D01*
X98788594Y-110974171D01*
X98792114Y-110939036D01*
G37*
G36*
X99170752Y-110719462D02*
G01*
X98934141Y-110719462D01*
X99209953Y-111630000D01*
X99481551Y-111630000D01*
X99750340Y-110719462D01*
X99517943Y-110719462D01*
X99351308Y-111418607D01*
X99170752Y-110719462D01*
G37*
G36*
X100470551Y-110939036D02*
G01*
X100468623Y-110909096D01*
X100462942Y-110880502D01*
X100440810Y-110827873D01*
X100405003Y-110782528D01*
X100356294Y-110746179D01*
X100327318Y-110731967D01*
X100295652Y-110720830D01*
X100261212Y-110712930D01*
X100224398Y-110708572D01*
X100198953Y-110707739D01*
X100112703Y-110714774D01*
X100033984Y-110734852D01*
X99964386Y-110765908D01*
X99908824Y-110802896D01*
X99885345Y-110823998D01*
X99980539Y-110967185D01*
X100011403Y-110937511D01*
X100047547Y-110911940D01*
X100074150Y-110899054D01*
X100103548Y-110890050D01*
X100145769Y-110885547D01*
X100172095Y-110887570D01*
X100196048Y-110893915D01*
X100213280Y-110902746D01*
X100227431Y-110915066D01*
X100236650Y-110928658D01*
X100242676Y-110945165D01*
X100245115Y-110967185D01*
X100237595Y-110998534D01*
X100214053Y-111029662D01*
X100171316Y-111059732D01*
X100107550Y-111084928D01*
X100068350Y-111093990D01*
X100026090Y-111099670D01*
X100008566Y-111100908D01*
X100008566Y-111235303D01*
X100063673Y-111237787D01*
X100114803Y-111244279D01*
X100156151Y-111253532D01*
X100192836Y-111266150D01*
X100220153Y-111279786D01*
X100243028Y-111296043D01*
X100258884Y-111312266D01*
X100270780Y-111330531D01*
X100277907Y-111348926D01*
X100281302Y-111369066D01*
X100281568Y-111376842D01*
X100279668Y-111397034D01*
X100274183Y-111414436D01*
X100254316Y-111440716D01*
X100222380Y-111457897D01*
X100176508Y-111465033D01*
X100172331Y-111465075D01*
X100138590Y-111463192D01*
X100107977Y-111457828D01*
X100052446Y-111437337D01*
X99998771Y-111402739D01*
X99960938Y-111371224D01*
X99855975Y-111544881D01*
X99886604Y-111567366D01*
X99927302Y-111590883D01*
X99968285Y-111609309D01*
X100015749Y-111625330D01*
X100061152Y-111636021D01*
X100111021Y-111643078D01*
X100165370Y-111645631D01*
X100213271Y-111643729D01*
X100257046Y-111638231D01*
X100296769Y-111629460D01*
X100332617Y-111617722D01*
X100365010Y-111603173D01*
X100393697Y-111586234D01*
X100441464Y-111545360D01*
X100476400Y-111496393D01*
X100498110Y-111440964D01*
X100505539Y-111382398D01*
X100503618Y-111349287D01*
X100497985Y-111318394D01*
X100488895Y-111289881D01*
X100476521Y-111263584D01*
X100442048Y-111217011D01*
X100394441Y-111178467D01*
X100333134Y-111148779D01*
X100295551Y-111137362D01*
X100330167Y-111124559D01*
X100361828Y-111108666D01*
X100389335Y-111090512D01*
X100413398Y-111069821D01*
X100432772Y-111047973D01*
X100448455Y-111024150D01*
X100459644Y-110999912D01*
X100467031Y-110974171D01*
X100470551Y-110939036D01*
G37*
G36*
X94573752Y-98737894D02*
G01*
X94531019Y-98764754D01*
X94488205Y-98785969D01*
X94452376Y-98798979D01*
X94415172Y-98807960D01*
X94349781Y-98813670D01*
X94319035Y-98811725D01*
X94291264Y-98805927D01*
X94267896Y-98797056D01*
X94247001Y-98784902D01*
X94212846Y-98751557D01*
X94186645Y-98703824D01*
X94168354Y-98637136D01*
X94159711Y-98544813D01*
X94159394Y-98520396D01*
X94161336Y-98465775D01*
X94167111Y-98417441D01*
X94175619Y-98378870D01*
X94187174Y-98345279D01*
X94200402Y-98318765D01*
X94216104Y-98296278D01*
X94233149Y-98278685D01*
X94252321Y-98264544D01*
X94296450Y-98246473D01*
X94344164Y-98241165D01*
X94382211Y-98243237D01*
X94417885Y-98249926D01*
X94477626Y-98274028D01*
X94545786Y-98319750D01*
X94619975Y-98133393D01*
X94578273Y-98109970D01*
X94536268Y-98091026D01*
X94495569Y-98077001D01*
X94454053Y-98066862D01*
X94367683Y-98057845D01*
X94356742Y-98057739D01*
X94308157Y-98059683D01*
X94261934Y-98065475D01*
X94219437Y-98074719D01*
X94179353Y-98087476D01*
X94142714Y-98103232D01*
X94108540Y-98122220D01*
X94077461Y-98143967D01*
X94048925Y-98168737D01*
X94023185Y-98196276D01*
X94000113Y-98226703D01*
X93962136Y-98296397D01*
X93935597Y-98378508D01*
X93921688Y-98473904D01*
X93919975Y-98524609D01*
X93921929Y-98585363D01*
X93927787Y-98642237D01*
X93936855Y-98692109D01*
X93949371Y-98738423D01*
X93964350Y-98778830D01*
X93982398Y-98815960D01*
X94002474Y-98848278D01*
X94025339Y-98877521D01*
X94050184Y-98902909D01*
X94077652Y-98925321D01*
X94139813Y-98960773D01*
X94213180Y-98984263D01*
X94299730Y-98995082D01*
X94325968Y-98995631D01*
X94377379Y-98993632D01*
X94426640Y-98987456D01*
X94471220Y-98977789D01*
X94515714Y-98964103D01*
X94609947Y-98922721D01*
X94625532Y-98914481D01*
X94573752Y-98737894D01*
G37*
G36*
X94762002Y-98069462D02*
G01*
X94762002Y-98980000D01*
X94987377Y-98980000D01*
X94987377Y-98620047D01*
X95032196Y-98608811D01*
X95222583Y-98980000D01*
X95496990Y-98980000D01*
X95232353Y-98500978D01*
X95467559Y-98069462D01*
X95216966Y-98069462D01*
X95041966Y-98418302D01*
X94987377Y-98436498D01*
X94987377Y-98069462D01*
X94762002Y-98069462D01*
G37*
G36*
X95784586Y-98397297D02*
G01*
X96095385Y-98980000D01*
X96323569Y-98980000D01*
X96323569Y-98069462D01*
X96113581Y-98069462D01*
X96113581Y-98615833D01*
X95818230Y-98069462D01*
X95573194Y-98069462D01*
X95573194Y-98980000D01*
X95785990Y-98980000D01*
X95784586Y-98397297D01*
G37*
G36*
X99177713Y-103247297D02*
G01*
X99488512Y-103830000D01*
X99716696Y-103830000D01*
X99716696Y-102919462D01*
X99506708Y-102919462D01*
X99506708Y-103465833D01*
X99211358Y-102919462D01*
X98966321Y-102919462D01*
X98966321Y-103830000D01*
X99179118Y-103830000D01*
X99177713Y-103247297D01*
G37*
G36*
X100484535Y-103587894D02*
G01*
X100441801Y-103614754D01*
X100398988Y-103635969D01*
X100363158Y-103648979D01*
X100325954Y-103657960D01*
X100260564Y-103663670D01*
X100229817Y-103661725D01*
X100202047Y-103655927D01*
X100178678Y-103647056D01*
X100157783Y-103634902D01*
X100123628Y-103601557D01*
X100097428Y-103553824D01*
X100079136Y-103487136D01*
X100070494Y-103394813D01*
X100070177Y-103370396D01*
X100072118Y-103315775D01*
X100077894Y-103267441D01*
X100086401Y-103228870D01*
X100097956Y-103195279D01*
X100111185Y-103168765D01*
X100126887Y-103146278D01*
X100143931Y-103128685D01*
X100163103Y-103114544D01*
X100207232Y-103096473D01*
X100254946Y-103091165D01*
X100292994Y-103093237D01*
X100328667Y-103099926D01*
X100388408Y-103124028D01*
X100456569Y-103169750D01*
X100530757Y-102983393D01*
X100489055Y-102959970D01*
X100447050Y-102941026D01*
X100406351Y-102927001D01*
X100364835Y-102916862D01*
X100278466Y-102907845D01*
X100267525Y-102907739D01*
X100218939Y-102909683D01*
X100172716Y-102915475D01*
X100130219Y-102924719D01*
X100090136Y-102937476D01*
X100053496Y-102953232D01*
X100019322Y-102972220D01*
X99988243Y-102993967D01*
X99959707Y-103018737D01*
X99933968Y-103046276D01*
X99910895Y-103076703D01*
X99872918Y-103146397D01*
X99846380Y-103228508D01*
X99832470Y-103323904D01*
X99830757Y-103374609D01*
X99832711Y-103435363D01*
X99838570Y-103492237D01*
X99847638Y-103542109D01*
X99860154Y-103588423D01*
X99875132Y-103628830D01*
X99893180Y-103665960D01*
X99913256Y-103698278D01*
X99936122Y-103727521D01*
X99960967Y-103752909D01*
X99988434Y-103775321D01*
X100050596Y-103810773D01*
X100123963Y-103834263D01*
X100210512Y-103845082D01*
X100236750Y-103845631D01*
X100288161Y-103843632D01*
X100337422Y-103837456D01*
X100382002Y-103827789D01*
X100426496Y-103814103D01*
X100520729Y-103772721D01*
X100536314Y-103764481D01*
X100484535Y-103587894D01*
G37*
G36*
X98806097Y-98687894D02*
G01*
X98763364Y-98714754D01*
X98720550Y-98735969D01*
X98684721Y-98748979D01*
X98647517Y-98757960D01*
X98582126Y-98763670D01*
X98551380Y-98761725D01*
X98523609Y-98755927D01*
X98500241Y-98747056D01*
X98479346Y-98734902D01*
X98445191Y-98701557D01*
X98418990Y-98653824D01*
X98400699Y-98587136D01*
X98392056Y-98494813D01*
X98391739Y-98470396D01*
X98393681Y-98415775D01*
X98399456Y-98367441D01*
X98407964Y-98328870D01*
X98419519Y-98295279D01*
X98432747Y-98268765D01*
X98448449Y-98246278D01*
X98465494Y-98228685D01*
X98484666Y-98214544D01*
X98528795Y-98196473D01*
X98576509Y-98191165D01*
X98614556Y-98193237D01*
X98650230Y-98199926D01*
X98709971Y-98224028D01*
X98778131Y-98269750D01*
X98852320Y-98083393D01*
X98810618Y-98059970D01*
X98768613Y-98041026D01*
X98727914Y-98027001D01*
X98686398Y-98016862D01*
X98600028Y-98007845D01*
X98589087Y-98007739D01*
X98540502Y-98009683D01*
X98494279Y-98015475D01*
X98451782Y-98024719D01*
X98411698Y-98037476D01*
X98375059Y-98053232D01*
X98340885Y-98072220D01*
X98309806Y-98093967D01*
X98281270Y-98118737D01*
X98255530Y-98146276D01*
X98232458Y-98176703D01*
X98194481Y-98246397D01*
X98167942Y-98328508D01*
X98154033Y-98423904D01*
X98152320Y-98474609D01*
X98154274Y-98535363D01*
X98160132Y-98592237D01*
X98169200Y-98642109D01*
X98181716Y-98688423D01*
X98196695Y-98728830D01*
X98214743Y-98765960D01*
X98234819Y-98798278D01*
X98257684Y-98827521D01*
X98282529Y-98852909D01*
X98309997Y-98875321D01*
X98372158Y-98910773D01*
X98445525Y-98934263D01*
X98532075Y-98945082D01*
X98558313Y-98945631D01*
X98609724Y-98943632D01*
X98658985Y-98937456D01*
X98703565Y-98927789D01*
X98748059Y-98914103D01*
X98842292Y-98872721D01*
X98857877Y-98864481D01*
X98806097Y-98687894D01*
G37*
G36*
X98994347Y-98019462D02*
G01*
X98994347Y-98930000D01*
X99219722Y-98930000D01*
X99219722Y-98570047D01*
X99264541Y-98558811D01*
X99454928Y-98930000D01*
X99729335Y-98930000D01*
X99464698Y-98450978D01*
X99699904Y-98019462D01*
X99449311Y-98019462D01*
X99274311Y-98368302D01*
X99219722Y-98386498D01*
X99219722Y-98019462D01*
X98994347Y-98019462D01*
G37*
G36*
X100226989Y-98019607D02*
G01*
X100316960Y-98028580D01*
X100389898Y-98049893D01*
X100420925Y-98064738D01*
X100448541Y-98082175D01*
X100473375Y-98102537D01*
X100494848Y-98125271D01*
X100513958Y-98151607D01*
X100529582Y-98180182D01*
X100542689Y-98213337D01*
X100552032Y-98248615D01*
X100558138Y-98289401D01*
X100560127Y-98332093D01*
X100558602Y-98368878D01*
X100545192Y-98441808D01*
X100519081Y-98504374D01*
X100480951Y-98557049D01*
X100457316Y-98579779D01*
X100430599Y-98599999D01*
X100400414Y-98617779D01*
X100367070Y-98632722D01*
X100329671Y-98644941D01*
X100288961Y-98653907D01*
X100243604Y-98659588D01*
X100194740Y-98661516D01*
X100075732Y-98661516D01*
X100075732Y-98930000D01*
X99850357Y-98930000D01*
X99850357Y-98476685D01*
X100075732Y-98476685D01*
X100190527Y-98476685D01*
X100223698Y-98474629D01*
X100264873Y-98462829D01*
X100293532Y-98440544D01*
X100304681Y-98423651D01*
X100312888Y-98403063D01*
X100318807Y-98373933D01*
X100320769Y-98339115D01*
X100317277Y-98294338D01*
X100304489Y-98256282D01*
X100281566Y-98228819D01*
X100265032Y-98218265D01*
X100244628Y-98210238D01*
X100218151Y-98204784D01*
X100186375Y-98202889D01*
X100075732Y-98202889D01*
X100075732Y-98476685D01*
X99850357Y-98476685D01*
X99850357Y-98019462D01*
X100212936Y-98019462D01*
X100226989Y-98019607D01*
G37*
D13*
X107829318Y-101423332D02*
X108736461Y-101423332D01*
X108736461Y-101423332D02*
X108917889Y-101483809D01*
X108917889Y-101483809D02*
X109038842Y-101604761D01*
X109038842Y-101604761D02*
X109099318Y-101786190D01*
X109099318Y-101786190D02*
X109099318Y-101907142D01*
X107950270Y-100879047D02*
X107889794Y-100818571D01*
X107889794Y-100818571D02*
X107829318Y-100697618D01*
X107829318Y-100697618D02*
X107829318Y-100395237D01*
X107829318Y-100395237D02*
X107889794Y-100274285D01*
X107889794Y-100274285D02*
X107950270Y-100213809D01*
X107950270Y-100213809D02*
X108071222Y-100153332D01*
X108071222Y-100153332D02*
X108192175Y-100153332D01*
X108192175Y-100153332D02*
X108373603Y-100213809D01*
X108373603Y-100213809D02*
X109099318Y-100939523D01*
X109099318Y-100939523D02*
X109099318Y-100153332D01*
D12*
G36*
X108014777Y-87190697D02*
G01*
X108359159Y-87190697D01*
X108359159Y-87527020D01*
X108357244Y-87563584D01*
X108351656Y-87596557D01*
X108342912Y-87625391D01*
X108331126Y-87651191D01*
X108298989Y-87694734D01*
X108254522Y-87729796D01*
X108194973Y-87757669D01*
X108115492Y-87778625D01*
X108002137Y-87793306D01*
X108035720Y-87989249D01*
X108099506Y-87985338D01*
X108164969Y-87976855D01*
X108222807Y-87965150D01*
X108279765Y-87949070D01*
X108328015Y-87931133D01*
X108374132Y-87909301D01*
X108412616Y-87886524D01*
X108448424Y-87860313D01*
X108478075Y-87833537D01*
X108504810Y-87803681D01*
X108526666Y-87773167D01*
X108545445Y-87739793D01*
X108560204Y-87705291D01*
X108571689Y-87668014D01*
X108579515Y-87628881D01*
X108583777Y-87586936D01*
X108584534Y-87559260D01*
X108584534Y-87004462D01*
X108014777Y-87004462D01*
X108014777Y-87190697D01*
G37*
G36*
X108796598Y-87780605D02*
G01*
X108796598Y-87915000D01*
X109441949Y-87915000D01*
X109441949Y-87730230D01*
X109069539Y-87730230D01*
X109123068Y-87691866D01*
X109175510Y-87649186D01*
X109222706Y-87605564D01*
X109266748Y-87559014D01*
X109302851Y-87514921D01*
X109334756Y-87469118D01*
X109358955Y-87427235D01*
X109378680Y-87384473D01*
X109392064Y-87345738D01*
X109401059Y-87306636D01*
X109405556Y-87254506D01*
X109403619Y-87218685D01*
X109397875Y-87184919D01*
X109388704Y-87154120D01*
X109376102Y-87125560D01*
X109360496Y-87099857D01*
X109341766Y-87076580D01*
X109320176Y-87056010D01*
X109295681Y-87038093D01*
X109237957Y-87010616D01*
X109168293Y-86995327D01*
X109121380Y-86992739D01*
X109038027Y-86999805D01*
X108960866Y-87020130D01*
X108891267Y-87051996D01*
X108833575Y-87091111D01*
X108803559Y-87118768D01*
X108905775Y-87265741D01*
X108929922Y-87238722D01*
X108956465Y-87215091D01*
X108983166Y-87196625D01*
X109011151Y-87182415D01*
X109037080Y-87173776D01*
X109063427Y-87169519D01*
X109073753Y-87169143D01*
X109097531Y-87171045D01*
X109117885Y-87176545D01*
X109134310Y-87184911D01*
X109147829Y-87196026D01*
X109166939Y-87226227D01*
X109175655Y-87268696D01*
X109175968Y-87279724D01*
X109168523Y-87336740D01*
X109144106Y-87404887D01*
X109099246Y-87484921D01*
X109031716Y-87574734D01*
X108943975Y-87666917D01*
X108895501Y-87709791D01*
X108847752Y-87746938D01*
X108796598Y-87780605D01*
G37*
G36*
X88284777Y-87770697D02*
G01*
X88629159Y-87770697D01*
X88629159Y-88107020D01*
X88627244Y-88143584D01*
X88621656Y-88176557D01*
X88612912Y-88205391D01*
X88601126Y-88231191D01*
X88568989Y-88274734D01*
X88524522Y-88309796D01*
X88464973Y-88337669D01*
X88385492Y-88358625D01*
X88272137Y-88373306D01*
X88305720Y-88569249D01*
X88369506Y-88565338D01*
X88434969Y-88556855D01*
X88492807Y-88545150D01*
X88549765Y-88529070D01*
X88598015Y-88511133D01*
X88644132Y-88489301D01*
X88682616Y-88466524D01*
X88718424Y-88440313D01*
X88748075Y-88413537D01*
X88774810Y-88383681D01*
X88796666Y-88353167D01*
X88815445Y-88319793D01*
X88830204Y-88285291D01*
X88841689Y-88248014D01*
X88849515Y-88208881D01*
X88853777Y-88166936D01*
X88854534Y-88139260D01*
X88854534Y-87584462D01*
X88284777Y-87584462D01*
X88284777Y-87770697D01*
G37*
G36*
X89070750Y-88495000D02*
G01*
X89721779Y-88495000D01*
X89721779Y-88310230D01*
X89501961Y-88310230D01*
X89501961Y-87572739D01*
X89109951Y-87646927D01*
X89109951Y-87813440D01*
X89282142Y-87791031D01*
X89282142Y-88310230D01*
X89070750Y-88310230D01*
X89070750Y-88495000D01*
G37*
D11*
%TO.C,J2*%
X104500000Y-94000000D02*
X104500000Y-94000000D01*
X104500000Y-94100000D02*
X104500000Y-94100000D01*
X104500000Y-94100000D02*
X104500000Y-94100000D01*
D10*
X111550000Y-112460000D02*
X111550000Y-112460000D01*
X111550000Y-112460000D02*
X112700000Y-112460000D01*
X111800000Y-89540000D02*
X111800000Y-89540000D01*
X111800000Y-89540000D02*
X112700000Y-89540000D01*
X112700000Y-89540000D02*
X111800000Y-89540000D01*
X112700000Y-89540000D02*
X112700000Y-89540000D01*
X112700000Y-89540000D02*
X112700000Y-89540000D01*
X112700000Y-89540000D02*
X112700000Y-112460000D01*
X112700000Y-112460000D02*
X111550000Y-112460000D01*
X112700000Y-112460000D02*
X112700000Y-89540000D01*
X112700000Y-112460000D02*
X112700000Y-112460000D01*
X112700000Y-112460000D02*
X112700000Y-112460000D01*
D11*
X104500000Y-94000000D02*
G75*
G02*
X104500000Y-94100000I0J-50000D01*
G01*
X104500000Y-94000000D02*
G75*
G02*
X104500000Y-94100000I0J-50000D01*
G01*
X104500000Y-94100000D02*
G75*
G02*
X104500000Y-94000000I0J50000D01*
G01*
D14*
%TO.C,J1*%
X86370000Y-89520000D02*
X86370000Y-112500000D01*
X86370000Y-89520000D02*
X88970000Y-89520000D01*
X86370000Y-112500000D02*
X91570000Y-112500000D01*
X88970000Y-89520000D02*
X88970000Y-92120000D01*
X88970000Y-92120000D02*
X91570000Y-92120000D01*
X90240000Y-89520000D02*
X91570000Y-89520000D01*
X91570000Y-89520000D02*
X91570000Y-90850000D01*
X91570000Y-92120000D02*
X91570000Y-112500000D01*
%TD*%
M02*
